<svg width="30" height="36" viewBox="0 0 30 36" fill="none" xmlns="http://www.w3.org/2000/svg">
<g clip-path="url(#clip0_401_967)">
<g clip-path="url(#clip1_401_967)">
<path d="M18.04 0.709961H11.96V3.03996H18.04V0.709961Z" stroke="#363636" stroke-width="1.42"/>
<path d="M16.54 3.70996H13.46V6.03996H16.54V3.70996Z" stroke="#363636" stroke-width="1.42"/>
<path d="M16.54 3.70996H13.46V6.03996H16.54V3.70996Z" stroke="#363636" stroke-width="1.42"/>
<path d="M15 35.29C22.8921 35.29 29.29 28.8921 29.29 21C29.29 13.1078 22.8921 6.70996 15 6.70996C7.10781 6.70996 0.709961 13.1078 0.709961 21C0.709961 28.8921 7.10781 35.29 15 35.29Z" stroke="#363636" stroke-width="1.42"/>
<path d="M15.0039 7V9" stroke="#363636" stroke-width="1.42"/>
<path d="M15 21.79C15.4363 21.79 15.79 21.4363 15.79 21C15.79 20.5637 15.4363 20.21 15 20.21C14.5637 20.21 14.21 20.5637 14.21 21C14.21 21.4363 14.5637 21.79 15 21.79Z" stroke="#363636" stroke-width="1.42"/>
<path d="M15 11.25V20.25" stroke="#363636" stroke-width="1.42"/>
<path d="M15.0039 33V35" stroke="#363636" stroke-width="1.42"/>
<path d="M29.0039 21H27.0039" stroke="#363636" stroke-width="1.42"/>
<path d="M3.00391 21H1.00391" stroke="#363636" stroke-width="1.42"/>
<path d="M24.9015 11.1006L23.252 12.75" stroke="#363636" stroke-width="1.42"/>
<path d="M6.75687 29.2446L5.10742 30.8941" stroke="#363636" stroke-width="1.42"/>
<path d="M24.9015 30.8941L23.252 29.2446" stroke="#363636" stroke-width="1.42"/>
<path d="M6.75687 12.7498L5.10742 11.1003" stroke="#363636" stroke-width="1.42"/>
</g>
</g>
<defs>
<clipPath id="clip0_401_967">
<rect width="30" height="36" fill="white"/>
</clipPath>
<clipPath id="clip1_401_967">
<rect width="30" height="36" fill="white"/>
</clipPath>
</defs>
</svg>
