<svg width="21" height="36" viewBox="0 0 21 36" fill="none" xmlns="http://www.w3.org/2000/svg">
<g clip-path="url(#clip0_401_950)">
<g clip-path="url(#clip1_401_950)">
<mask id="mask0_401_950" style="mask-type:luminance" maskUnits="userSpaceOnUse" x="0" y="0" width="21" height="36">
<path d="M19.5714 0H1C0.447715 0 0 0.447715 0 1V35C0 35.5523 0.447715 36 1 36H19.5714C20.1237 36 20.5714 35.5523 20.5714 35V1C20.5714 0.447715 20.1237 0 19.5714 0Z" fill="white"/>
</mask>
<g mask="url(#mask0_401_950)">
<path d="M19.5714 0H1C0.447715 0 0 0.447715 0 1V35C0 35.5523 0.447715 36 1 36H19.5714C20.1237 36 20.5714 35.5523 20.5714 35V1C20.5714 0.447715 20.1237 0 19.5714 0Z" stroke="#363636" stroke-width="2.84"/>
</g>
<mask id="mask1_401_950" style="mask-type:luminance" maskUnits="userSpaceOnUse" x="3" y="3" width="15" height="30">
<path d="M16.4293 3.42871H4.14355C3.59127 3.42871 3.14355 3.87643 3.14355 4.42871V31.7144C3.14355 32.2667 3.59127 32.7144 4.14355 32.7144H16.4293C16.9815 32.7144 17.4293 32.2667 17.4293 31.7144V4.42871C17.4293 3.87643 16.9815 3.42871 16.4293 3.42871Z" fill="white"/>
</mask>
<g mask="url(#mask1_401_950)">
<path d="M16.4293 3.42871H4.14355C3.59127 3.42871 3.14355 3.87643 3.14355 4.42871V31.7144C3.14355 32.2667 3.59127 32.7144 4.14355 32.7144H16.4293C16.9815 32.7144 17.4293 32.2667 17.4293 31.7144V4.42871C17.4293 3.87643 16.9815 3.42871 16.4293 3.42871Z" stroke="#363636" stroke-width="2.84"/>
</g>
<mask id="mask2_401_950" style="mask-type:luminance" maskUnits="userSpaceOnUse" x="6" y="6" width="9" height="8">
<path d="M13.5714 6.28589H7C6.44772 6.28589 6 6.7336 6 7.28589V12.4287C6 12.981 6.44772 13.4287 7 13.4287H13.5714C14.1237 13.4287 14.5714 12.981 14.5714 12.4287V7.28589C14.5714 6.7336 14.1237 6.28589 13.5714 6.28589Z" fill="white"/>
</mask>
<g mask="url(#mask2_401_950)">
<path d="M13.5714 6.28589H7C6.44772 6.28589 6 6.7336 6 7.28589V12.4287C6 12.981 6.44772 13.4287 7 13.4287H13.5714C14.1237 13.4287 14.5714 12.981 14.5714 12.4287V7.28589C14.5714 6.7336 14.1237 6.28589 13.5714 6.28589Z" stroke="#363636" stroke-width="2.84"/>
</g>
<path d="M12.29 29H8.29004V13.4287H9.71289V27.5771H10.8672V13.4287H12.29V29Z" fill="#363636"/>
</g>
</g>
<defs>
<clipPath id="clip0_401_950">
<rect width="21" height="36" fill="white"/>
</clipPath>
<clipPath id="clip1_401_950">
<rect width="21" height="36" fill="white"/>
</clipPath>
</defs>
</svg>
