<svg width="36" height="36" viewBox="0 0 36 36" fill="none" xmlns="http://www.w3.org/2000/svg">
<g clip-path="url(#clip0_401_985)">
<path d="M9.3923 13.5348L9 11.1375L11.6007 11.6103C16.0107 12.4121 19.2162 16.253 19.2162 20.7354C19.2162 21.0768 18.9391 21.3537 18.5977 21.3537C14.029 21.3537 10.1301 18.0435 9.3923 13.5348Z" stroke="#363636" stroke-width="1.42" stroke-linecap="round"/>
<path fill-rule="evenodd" clip-rule="evenodd" d="M20.5248 19.7466C23.8665 18.4847 26.2473 15.3455 26.4422 11.6476L26.5783 9.06348L24.3023 9.74248C21.7305 10.5084 19.7133 12.3148 18.619 14.5946C18.608 14.5786 18.597 14.5627 18.5859 14.5468C19.6892 12.2668 21.7121 10.4612 24.2883 9.69408L26.5977 9.00688L26.6318 8.99658L26.6295 9.03228L26.4917 11.6501C26.2956 15.3726 23.8967 18.5325 20.5307 19.7985C20.5288 19.7812 20.5268 19.7639 20.5248 19.7466Z" fill="#363636"/>
<path d="M20.5245 19.7468L20.2737 19.0825L19.7552 19.2783L19.8192 19.8288L20.5245 19.7468ZM26.578 9.06372L27.2871 9.10112L27.34 8.09542L26.3751 8.38332L26.578 9.06372ZM18.6187 14.5948L18.0338 14.9973L18.7285 16.0068L19.2588 14.902L18.6187 14.5948ZM18.5856 14.547L17.9465 14.2378L17.7656 14.6118L18.0029 14.9527L18.5856 14.547ZM26.5974 9.00712L26.7999 9.68762L26.802 9.68692L26.5974 9.00712ZM26.6315 8.99682L27.34 9.04282L27.4063 8.02222L26.4269 8.31692L26.6315 8.99682ZM26.6292 9.03252L25.9206 8.98652L25.9202 8.99522L26.6292 9.03252ZM20.5304 19.7987L19.8248 19.8777L19.9263 20.7845L20.7804 20.4633L20.5304 19.7987ZM20.5245 19.7468L20.7753 20.411C24.3755 19.0515 26.9409 15.6698 27.1509 11.6851L26.4419 11.6478L25.7329 11.6104C25.5531 15.0215 23.3569 17.9183 20.2737 19.0825L20.5245 19.7468ZM26.4419 11.6478L27.1509 11.6851L27.2871 9.10112L26.578 9.06372L25.869 9.02632L25.7329 11.6104L26.4419 11.6478ZM26.578 9.06372L26.3751 8.38332L24.0991 9.06232L24.302 9.74272L24.5047 10.4232L26.781 9.74412L26.578 9.06372ZM24.302 9.74272L24.0991 9.06232C21.3288 9.88732 19.1566 11.8335 17.9786 14.2875L18.6187 14.5948L19.2588 14.902C20.2694 12.7966 22.1312 11.13 24.5047 10.4232L24.302 9.74272ZM18.5856 14.547L18.0029 14.9527C18.0133 14.9676 18.0236 14.9824 18.0338 14.9973L18.6187 14.5948L19.2036 14.1923C19.1919 14.1753 19.1801 14.1583 19.1683 14.1414L18.5856 14.547ZM18.5856 14.547L19.2247 14.8563C20.2442 12.7496 22.1121 11.083 24.4906 10.3748L24.288 9.69432L24.0855 9.01382C21.3116 9.83982 19.1337 11.7844 17.9465 14.2378L18.5856 14.547ZM24.288 9.69432L24.4906 10.3748L26.7999 9.68762L26.5974 9.00712L26.3949 8.32662L24.0855 9.01382L24.288 9.69432ZM26.5974 9.00712L26.802 9.68692L26.8361 9.67672L26.6315 8.99682L26.4269 8.31692L26.3928 8.32722L26.5974 9.00712ZM26.6315 8.99682L25.923 8.95082L25.9206 8.98652L26.6292 9.03252L27.3377 9.07852L27.34 9.04282L26.6315 8.99682ZM26.6292 9.03252L25.9202 8.99522L25.7824 11.613L26.4914 11.6503L27.2004 11.6876L27.3382 9.06992L26.6292 9.03252ZM26.4914 11.6503L25.7824 11.613C25.6014 15.0485 23.3875 17.9656 20.2805 19.1342L20.5304 19.7987L20.7804 20.4633C24.4054 19.0999 26.9891 15.6972 27.2004 11.6876L26.4914 11.6503ZM20.5245 19.7468L19.8192 19.8288C19.8211 19.8451 19.823 19.8614 19.8248 19.8777L20.5304 19.7987L21.236 19.7197C21.234 19.7014 21.2319 19.683 21.2297 19.6647L20.5245 19.7468Z" fill="#363636"/>
<path d="M19.2158 20.8669V27.6778" stroke="#363636" stroke-width="1.42" stroke-linecap="round"/>
<path d="M4.51125 29.9189L4.32777 21.7226L-2.67871 25.9797L4.51125 29.9189ZM18 35.29C17.6079 35.29 17.29 35.6079 17.29 36C17.29 36.3921 17.6079 36.71 18 36.71V36V35.29ZM31.4888 6.08112L31.6722 14.2774L38.6787 10.0203L31.4888 6.08112ZM18 0.710039C18.3921 0.710039 18.71 0.392159 18.71 3.91006e-05C18.71 -0.392081 18.3921 -0.709961 18 -0.709961V3.91006e-05V0.710039ZM1.19312 24.4578L1.85583 24.203C1.1159 22.2785 0.710021 20.1875 0.710021 18H2.09808e-05H-0.709979C-0.709979 20.3644 -0.271049 22.628 0.530411 24.7126L1.19312 24.4578ZM36 18H35.29C35.29 22.3913 33.6539 26.3987 30.9569 29.4486L31.4888 29.9189L32.0206 30.3892C34.9383 27.0898 36.71 22.7509 36.71 18H36ZM31.4888 29.9189L30.9569 29.4486C27.788 33.0322 23.1581 35.29 18 35.29V36V36.71C23.5819 36.71 28.5936 34.2647 32.0206 30.3892L31.4888 29.9189ZM34.8069 11.5422L34.1442 11.797C34.8841 13.7215 35.29 15.8125 35.29 18H36H36.71C36.71 15.6356 36.2711 13.372 35.4696 11.2874L34.8069 11.5422ZM2.09808e-05 18H0.710021C0.710021 13.6087 2.34615 9.60134 5.04312 6.55145L4.51125 6.08112L3.97937 5.61079C1.0617 8.91024 -0.709979 13.2491 -0.709979 18H2.09808e-05ZM4.51125 6.08112L5.04312 6.55145C8.21202 2.96786 12.8419 0.710039 18 0.710039V3.91006e-05V-0.709961C12.4181 -0.709961 7.40642 1.73533 3.97937 5.61079L4.51125 6.08112Z" fill="#363636"/>
</g>
<defs>
<clipPath id="clip0_401_985">
<rect width="36" height="36" fill="white"/>
</clipPath>
</defs>
</svg>
