<svg width="48" height="48" viewBox="0 0 48 48" fill="none" xmlns="http://www.w3.org/2000/svg">
<g clip-path="url(#clip0_304_2981)">
<g clip-path="url(#clip1_304_2981)">
<path d="M24 48C37.2548 48 48 37.2548 48 24C48 10.7452 37.2548 0 24 0C10.7452 0 0 10.7452 0 24C0 37.2548 10.7452 48 24 48Z" fill="#C9A55A" fill-opacity="0.5"/>
<path d="M15.8158 23.6343C13.7774 23.6343 12.125 24.6125 12.125 26.5728C12.125 28.9069 13.7698 29.6153 16.5463 29.6153V33.1648" stroke="#363636" stroke-width="0.610996" stroke-linecap="round"/>
<path d="M30.2094 23.6367C32.2477 23.6367 33.9001 24.9749 33.9001 26.6258C33.9001 28.2766 32.2477 29.6149 30.2094 29.6149H21.3516V33.1644" stroke="#363636" stroke-width="0.610996" stroke-linecap="round"/>
<path d="M23.1875 17.5731C23.512 16.0605 26.0075 15.3253 28.7612 15.9308C31.5149 16.5364 33.1151 19.3744 32.7905 20.887" stroke="#363636" stroke-width="0.610996" stroke-linecap="round"/>
<path d="M15.2656 23.6373H19.6021L20.5417 22.7087L22.0033 25.1849L23.6736 21.1611L24.7176 23.6373H30.3689" stroke="#363636" stroke-width="0.610996" stroke-linecap="round"/>
<path fill-rule="evenodd" clip-rule="evenodd" d="M17.2964 17.0995C18.3836 16.5819 19.687 16.4678 20.8197 16.7073C21.959 16.9482 22.8665 17.5313 23.2448 18.3458L23.799 18.0884C23.3098 17.0355 22.1918 16.373 20.9461 16.1096C19.6937 15.8447 18.2524 15.9677 17.0338 16.5478C15.8105 17.1302 14.7983 18.2207 14.3317 19.4997C13.948 20.5515 13.9336 21.7329 14.4747 22.8526C14.6373 22.8183 14.8025 22.7908 14.9694 22.7699C15.0119 22.7553 15.0558 22.7437 15.1008 22.7355C14.5601 21.73 14.557 20.6649 14.9057 19.7091C15.3159 18.5847 16.2138 17.6149 17.2964 17.0995ZM34.7729 26.0955C34.7415 25.8906 34.6921 25.6926 34.6264 25.5024C35.1853 25.3847 35.5866 25.1256 35.8485 24.7737C36.2171 24.2782 36.3569 23.5358 36.1831 22.5763C36.0148 21.8296 35.6502 21.3475 35.112 21.041C34.557 20.7249 33.7885 20.5791 32.7918 20.5791V19.9682C33.8335 19.9682 34.7258 20.1179 35.4143 20.51C36.1182 20.9109 36.5793 21.548 36.7807 22.4488L36.7833 22.4606C36.9769 23.5227 36.8437 24.4596 36.3387 25.1384C35.9749 25.6273 35.4423 25.9503 34.7729 26.0955Z" fill="#363636"/>
</g>
</g>
<defs>
<clipPath id="clip0_304_2981">
<rect width="48" height="48" fill="white"/>
</clipPath>
<clipPath id="clip1_304_2981">
<rect width="48" height="48" fill="white"/>
</clipPath>
</defs>
</svg>
