<svg width="48" height="49" viewBox="0 0 48 49" fill="none" xmlns="http://www.w3.org/2000/svg">
<g clip-path="url(#clip0_304_2996)">
<g clip-path="url(#clip1_304_2996)">
<path d="M24 48.1729C37.2548 48.1729 48 37.4277 48 24.1729C48 10.918 37.2548 0.172852 24 0.172852C10.7452 0.172852 0 10.918 0 24.1729C0 37.4277 10.7452 48.1729 24 48.1729Z" fill="#C9A55A" fill-opacity="0.5"/>
<path d="M31.5972 13.0234H16.3989C16.0491 13.0234 15.7656 13.307 15.7656 13.6567V36.205C15.7656 36.5547 16.0491 36.8382 16.3989 36.8382H31.5972C31.9469 36.8382 32.2305 36.5547 32.2305 36.205V13.6567C32.2305 13.307 31.9469 13.0234 31.5972 13.0234Z" stroke="#363636" stroke-width="0.633263"/>
<path d="M24.0296 23.7464L24.6971 18.2188L20.8828 25.6811H24.411L23.7435 31.2085L27.5577 23.7464H24.0296Z" stroke="#363636" stroke-width="0.633263"/>
<path d="M20.6641 13.0233V12.141C20.6641 11.7913 20.9476 11.5078 21.2973 11.5078H26.7057C27.0555 11.5078 27.339 11.7913 27.339 12.141V13.0233" stroke="#363636" stroke-width="0.633263"/>
</g>
</g>
<defs>
<clipPath id="clip0_304_2996">
<rect width="48" height="49" fill="white"/>
</clipPath>
<clipPath id="clip1_304_2996">
<rect width="48" height="49" fill="white"/>
</clipPath>
</defs>
</svg>
