<svg width="48" height="49" viewBox="0 0 48 49" fill="none" xmlns="http://www.w3.org/2000/svg">
<g clip-path="url(#clip0_304_2966)">
<g clip-path="url(#clip1_304_2966)">
<path d="M24 48.6343C37.2548 48.6343 48 37.8891 48 24.6343C48 11.3794 37.2548 0.634277 24 0.634277C10.7452 0.634277 0 11.3794 0 24.6343C0 37.8891 10.7452 48.6343 24 48.6343Z" fill="#C9A55A" fill-opacity="0.5"/>
<path d="M14.8278 30.3066V18.9618C14.8278 18.2952 14.2875 17.7549 13.621 17.7549C12.9544 17.7549 12.4141 18.2952 12.4141 18.9618V30.3066C12.4141 30.9732 12.9544 31.5135 13.621 31.5135C14.2875 31.5135 14.8278 30.9732 14.8278 30.3066Z" stroke="#363636" stroke-width="0.7"/>
<path d="M12.4138 28.1348V20.8934C12.4138 20.2268 11.8734 19.6865 11.2069 19.6865C10.5403 19.6865 10 20.2268 10 20.8934V28.1348C10 28.8013 10.5403 29.3417 11.2069 29.3417C11.8734 29.3417 12.4138 28.8013 12.4138 28.1348Z" stroke="#363636" stroke-width="0.7"/>
<path d="M33.1719 18.9617V30.3066C33.1719 30.9731 33.7122 31.5135 34.3787 31.5135C35.0453 31.5135 35.5856 30.9731 35.5856 30.3066V18.9617C35.5856 18.2952 35.0453 17.7549 34.3787 17.7549C33.7122 17.7549 33.1719 18.2952 33.1719 18.9617Z" stroke="#363636" stroke-width="0.7"/>
<path d="M35.5859 21.1341V28.3755C35.5859 29.0421 36.1263 29.5824 36.7928 29.5824C37.4594 29.5824 37.9997 29.0421 37.9997 28.3755V21.1341C37.9997 20.4676 37.4594 19.9272 36.7928 19.9272C36.1263 19.9272 35.5859 20.4676 35.5859 21.1341Z" stroke="#363636" stroke-width="0.7"/>
<path d="M14.8281 23.3071H33.173M14.8281 25.7209H33.173" stroke="#363636" stroke-width="0.7"/>
</g>
</g>
<defs>
<clipPath id="clip0_304_2966">
<rect width="48" height="49" fill="white"/>
</clipPath>
<clipPath id="clip1_304_2966">
<rect width="48" height="49" fill="white"/>
</clipPath>
</defs>
</svg>
