<svg width="48" height="48" viewBox="0 0 48 48" fill="none" xmlns="http://www.w3.org/2000/svg">
<g clip-path="url(#clip0_304_2955)">
<g clip-path="url(#clip1_304_2955)">
<path d="M24 48C37.2548 48 48 37.2548 48 24C48 10.7452 37.2548 0 24 0C10.7452 0 0 10.7452 0 24C0 37.2548 10.7452 48 24 48Z" fill="#C9A55A" fill-opacity="0.5"/>
<path d="M15.7432 37.0683L15.4732 36.8844L15.1254 37.395H15.7432V37.0683ZM25.4724 37.0683V37.395H25.7118L25.7839 37.1668L25.4724 37.0683ZM32.5632 28.3238L32.3567 28.0706L32.0464 28.3238L32.3567 28.577L32.5632 28.3238ZM18.5957 19.5527L18.6893 19.8657L18.9224 19.796V19.5527H18.5957ZM18.2853 19.684L18.052 19.9127L18.2266 20.0908L18.4444 19.9693L18.2853 19.684ZM17.6571 20.3246L17.945 20.479L18.0585 20.2674L17.8904 20.0959L17.6571 20.3246ZM17.5284 20.6411V20.9678H17.7744L17.8424 20.7314L17.5284 20.6411ZM17.5284 21.5471L17.8424 21.4568L17.7744 21.2204H17.5284V21.5471ZM17.6446 21.8397L17.8779 22.0685L18.0431 21.9L17.9351 21.6902L17.6446 21.8397ZM18.2623 22.4911L18.4262 22.2085L18.2067 22.0812L18.029 22.2624L18.2623 22.4911ZM18.5957 22.6355H18.9224V22.3922L18.6893 22.3225L18.5957 22.6355ZM19.4841 22.6355L19.3905 22.3225L19.1574 22.3922V22.6355H19.4841ZM19.8458 22.4743L20.0791 22.2456L19.8975 22.0604L19.676 22.1952L19.8458 22.4743ZM20.4504 21.8095L20.1569 21.6661L20.0555 21.8735L20.2171 22.0383L20.4504 21.8095ZM20.5514 21.5471V21.2204H20.3054L20.2374 21.4568L20.5514 21.5471ZM20.5514 20.6411L20.2374 20.7314L20.3054 20.9678H20.5514V20.6411ZM20.4383 20.3544L20.205 20.1257L20.0405 20.2935L20.1472 20.5028L20.4383 20.3544ZM19.8232 19.7004L19.6581 19.9823L19.878 20.1111L20.0565 19.9291L19.8232 19.7004ZM19.4841 19.5527H19.1574V19.796L19.3905 19.8657L19.4841 19.5527ZM25.2603 14.8652H24.9336V15.1085L25.1666 15.1782L25.2603 14.8652ZM25.8537 15.1236L25.6886 15.4055L25.9085 15.5344L26.087 15.3524L25.8537 15.1236ZM26.9301 16.2682L26.6968 16.0395L26.5323 16.2072L26.639 16.4166L26.9301 16.2682ZM27.128 16.7699L26.814 16.8602L26.882 17.0966H27.128V16.7699ZM27.128 18.3554V18.0287H26.882L26.814 18.2651L27.128 18.3554ZM26.9513 18.8146L26.6577 18.6712L26.5564 18.8786L26.718 19.0434L26.9513 18.8146ZM25.8933 19.978L26.1265 19.7493L25.945 19.5641L25.7234 19.6989L25.8933 19.978ZM25.2603 20.26L25.1666 19.947L24.9336 20.0167V20.26H25.2603ZM23.7055 20.26H24.0322V20.0167L23.7992 19.947L23.7055 20.26ZM23.1221 20.0074L23.286 19.7248L23.0665 19.5975L22.8888 19.7787L23.1221 20.0074ZM22.0411 18.8675L22.2744 19.0963L22.4396 18.9278L22.3316 18.718L22.0411 18.8675ZM21.8378 18.3554L22.1518 18.2651L22.0838 18.0287H21.8378V18.3554ZM21.8378 16.7699V17.0966H22.0838L22.1518 16.8602L21.8378 16.7699ZM22.063 16.2161L22.3509 16.3705L22.4644 16.1588L22.2962 15.9873L22.063 16.2161ZM23.1623 15.0949L22.9291 15.3237L23.1037 15.5017L23.3215 15.3802L23.1623 15.0949ZM23.7055 14.8652L23.7992 15.1782L24.0322 15.1085V14.8652H23.7055ZM16.0133 37.2522L16.3046 36.8243L15.7645 36.4565L15.4732 36.8844L16.0133 37.2522ZM25.4724 36.7416H15.7432V37.395H25.4724V36.7416ZM26.1771 33.7574L25.1609 36.9698L25.7839 37.1668L26.8001 33.9545L26.1771 33.7574ZM29.2441 31.9216C27.9047 31.6699 26.5881 32.458 26.1771 33.7574L26.8001 33.9545C27.1115 32.9701 28.1088 32.3731 29.1235 32.5638L29.2441 31.9216ZM31.0375 32.2584L29.2441 31.9216L29.1235 32.5638L30.9168 32.9006L31.0375 32.2584ZM32.188 30.8683C32.4839 31.6228 31.834 32.4081 31.0375 32.2584L30.9168 32.9006C32.218 33.1451 33.2797 31.8622 32.7963 30.6297L32.188 30.8683ZM32.1525 30.7778L32.188 30.8683L32.7963 30.6297L32.7608 30.5392L32.1525 30.7778ZM32.0716 30.3503C32.0716 30.4966 32.099 30.6416 32.1525 30.7778L32.7608 30.5392C32.7372 30.479 32.725 30.4149 32.725 30.3503H32.0716ZM32.4065 29.5305C32.1919 29.7494 32.0716 30.0437 32.0716 30.3503H32.725C32.725 30.2148 32.7782 30.0847 32.8731 29.988L32.4065 29.5305ZM32.4337 29.5027L32.4065 29.5305L32.8731 29.988L32.9003 29.9602L32.4337 29.5027ZM32.3836 28.5989C32.6629 28.8268 32.6861 29.2453 32.4337 29.5027L32.9003 29.9602C33.4218 29.4283 33.3738 28.5634 32.7967 28.0926L32.3836 28.5989ZM32.3567 28.577L32.3836 28.5989L32.7967 28.0926L32.7698 28.0706L32.3567 28.577ZM32.5948 27.8764L32.3567 28.0706L32.7698 28.5769L33.0079 28.3827L32.5948 27.8764ZM32.6507 27.282C32.8012 27.461 32.776 27.7286 32.5948 27.8764L33.0079 28.3827C33.4716 28.0044 33.536 27.3197 33.1509 26.8616L32.6507 27.282ZM32.8202 25.7401C32.3343 26.1117 32.2571 26.8138 32.6507 27.282L33.1509 26.8616C32.9971 26.6786 33.0273 26.4043 33.2171 26.2591L32.8202 25.7401ZM33.4251 25.2774L32.8202 25.7401L33.2171 26.2591L33.8221 25.7964L33.4251 25.2774ZM33.4298 24.6299C33.6399 24.7955 33.6376 25.1148 33.4251 25.2774L33.8221 25.7964C34.3734 25.3747 34.3794 24.5463 33.8342 24.1167L33.4298 24.6299ZM32.4023 23.8203L33.4298 24.6299L33.8342 24.1167L32.8067 23.307L32.4023 23.8203ZM31.0946 19.7424C30.6591 21.2412 31.1764 22.8543 32.4023 23.8203L32.8067 23.307C31.7899 22.5058 31.3609 21.1678 31.7221 19.9247L31.0946 19.7424ZM31.259 19.1765L31.0946 19.7424L31.7221 19.9247L31.8865 19.3588L31.259 19.1765ZM30.9465 16.1453C31.4411 17.0765 31.5532 18.1639 31.259 19.1765L31.8865 19.3588C32.2281 18.1829 32.0979 16.9202 31.5235 15.8388L30.9465 16.1453ZM30.4886 15.2832L30.9465 16.1453L31.5235 15.8388L31.0656 14.9767L30.4886 15.2832ZM28.2113 12.8385C29.1717 13.4395 29.9571 14.2827 30.4886 15.2832L31.0656 14.9767C30.4804 13.8749 29.6155 12.9464 28.5579 12.2846L28.2113 12.8385ZM27.7514 12.5508L28.2113 12.8385L28.5579 12.2846L28.0981 11.9969L27.7514 12.5508ZM18.0017 13.0789C20.8143 10.8625 24.7158 10.6512 27.7514 12.5508L28.0981 11.9969C24.8286 9.95091 20.6266 10.1786 17.5972 12.5657L18.0017 13.0789ZM17.5941 13.4001L18.0017 13.0789L17.5972 12.5657L17.1897 12.8868L17.5941 13.4001ZM14.8852 17.1871C15.4109 15.6935 16.3504 14.3801 17.5941 13.4001L17.1897 12.8868C15.8487 13.9435 14.8357 15.3597 14.2688 16.9701L14.8852 17.1871ZM15.8993 24.7188C14.3725 22.5163 13.9953 19.7149 14.8852 17.1871L14.2688 16.9701C13.3094 19.6957 13.716 22.7162 15.3622 25.0911L15.8993 24.7188ZM16.2566 25.2342L15.8993 24.7188L15.3622 25.0911L15.7195 25.6065L16.2566 25.2342ZM16.3046 36.8243C18.6887 33.3233 18.6696 28.7154 16.2566 25.2342L15.7195 25.6065C17.9785 28.8653 17.9964 33.1791 15.7645 36.4565L16.3046 36.8243ZM18.9224 19.2409C18.9224 19.3243 18.8545 19.4028 18.7572 19.4028V18.7494C18.4816 18.7494 18.269 18.9755 18.269 19.2409H18.9224ZM18.9224 19.5527V19.2409H18.269V19.5527H18.9224ZM18.4444 19.9693C18.5217 19.9262 18.6037 19.8914 18.6893 19.8657L18.502 19.2397C18.3701 19.2792 18.2442 19.3328 18.1262 19.3986L18.4444 19.9693ZM17.8125 19.6685L18.052 19.9127L18.5186 19.4552L18.2791 19.211L17.8125 19.6685ZM18.0506 19.6685C17.9856 19.7347 17.8775 19.7347 17.8125 19.6685L18.2791 19.211C18.0879 19.016 17.7752 19.016 17.5841 19.211L18.0506 19.6685ZM17.6508 20.0761L18.0506 19.6685L17.5841 19.211L17.1843 19.6187L17.6508 20.0761ZM17.6508 19.8516C17.7123 19.9143 17.7123 20.0134 17.6508 20.0761L17.1843 19.6187C16.9966 19.8101 16.9966 20.1177 17.1843 20.3091L17.6508 19.8516ZM17.8904 20.0959L17.6508 19.8516L17.1843 20.3091L17.4238 20.5534L17.8904 20.0959ZM17.8424 20.7314C17.8679 20.6429 17.9025 20.5584 17.945 20.479L17.3692 20.1703C17.305 20.29 17.2528 20.4174 17.2145 20.5507L17.8424 20.7314ZM17.2226 20.9678H17.5284V20.3144H17.2226V20.9678ZM17.3878 20.8058C17.3878 20.8892 17.3199 20.9678 17.2226 20.9678V20.3144C16.947 20.3144 16.7344 20.5405 16.7344 20.8058H17.3878ZM17.3878 21.3824V20.8058H16.7344V21.3824H17.3878ZM17.2226 21.2204C17.3199 21.2204 17.3878 21.299 17.3878 21.3824H16.7344C16.7344 21.6477 16.947 21.8738 17.2226 21.8738V21.2204ZM17.5284 21.2204H17.2226V21.8738H17.5284V21.2204ZM17.9351 21.6902C17.897 21.6164 17.8659 21.5383 17.8424 21.4568L17.2145 21.6374C17.2498 21.7602 17.2968 21.878 17.3541 21.9893L17.9351 21.6902ZM17.6508 22.3L17.8779 22.0685L17.4113 21.611L17.1843 21.8425L17.6508 22.3ZM17.6508 22.0755C17.7123 22.1382 17.7123 22.2373 17.6508 22.3L17.1843 21.8425C16.9966 22.0339 16.9966 22.3416 17.1843 22.533L17.6508 22.0755ZM18.0506 22.4832L17.6508 22.0755L17.1843 22.533L17.5841 22.9407L18.0506 22.4832ZM17.8125 22.4832C17.8775 22.4169 17.9856 22.4169 18.0506 22.4832L17.5841 22.9407C17.7752 23.1356 18.0879 23.1356 18.2791 22.9407L17.8125 22.4832ZM18.029 22.2624L17.8125 22.4832L18.2791 22.9407L18.4956 22.7199L18.029 22.2624ZM18.6893 22.3225C18.5969 22.2948 18.5087 22.2564 18.4262 22.2085L18.0984 22.7737C18.2244 22.8469 18.3597 22.9059 18.502 22.9485L18.6893 22.3225ZM18.9224 22.9473V22.6355H18.269V22.9473H18.9224ZM18.7572 22.7853C18.8545 22.7853 18.9224 22.8639 18.9224 22.9473H18.269C18.269 23.2127 18.4816 23.4388 18.7572 23.4388V22.7853ZM19.3226 22.7853H18.7572V23.4388H19.3226V22.7853ZM19.1574 22.9473C19.1574 22.8639 19.2254 22.7853 19.3226 22.7853V23.4388C19.5983 23.4388 19.8109 23.2127 19.8109 22.9473H19.1574ZM19.1574 22.6355V22.9473H19.8109V22.6355H19.1574ZM19.676 22.1952C19.5871 22.2493 19.4914 22.2923 19.3905 22.3225L19.5778 22.9485C19.7331 22.902 19.88 22.836 20.0157 22.7534L19.676 22.1952ZM20.3121 22.4832L20.0791 22.2456L19.6126 22.7031L19.8456 22.9407L20.3121 22.4832ZM20.074 22.4832C20.139 22.4169 20.2471 22.4169 20.3121 22.4832L19.8456 22.9407C20.0367 23.1356 20.3494 23.1356 20.5406 22.9407L20.074 22.4832ZM20.4738 22.0755L20.074 22.4832L20.5406 22.9407L20.9404 22.533L20.4738 22.0755ZM20.4738 22.3C20.4123 22.2373 20.4123 22.1382 20.4738 22.0755L20.9404 22.533C21.128 22.3416 21.128 22.0339 20.9404 21.8425L20.4738 22.3ZM20.2171 22.0383L20.4738 22.3L20.9404 21.8425L20.6837 21.5808L20.2171 22.0383ZM20.2374 21.4568C20.2165 21.5294 20.1894 21.5994 20.1569 21.6661L20.7439 21.953C20.7931 21.8524 20.8338 21.747 20.8654 21.6374L20.2374 21.4568ZM20.8572 21.2204H20.5514V21.8738H20.8572V21.2204ZM20.692 21.3824C20.692 21.299 20.76 21.2204 20.8572 21.2204V21.8738C21.1329 21.8738 21.3455 21.6477 21.3455 21.3824H20.692ZM20.692 20.8058V21.3824H21.3455V20.8058H20.692ZM20.8572 20.9678C20.76 20.9678 20.692 20.8892 20.692 20.8058H21.3455C21.3455 20.5405 21.1329 20.3144 20.8572 20.3144V20.9678ZM20.5514 20.9678H20.8572V20.3144H20.5514V20.9678ZM20.1472 20.5028C20.1841 20.5752 20.2145 20.6517 20.2374 20.7314L20.8654 20.5507C20.8308 20.4306 20.7851 20.3153 20.7294 20.2061L20.1472 20.5028ZM20.4738 19.8516L20.205 20.1257L20.6716 20.5832L20.9404 20.3091L20.4738 19.8516ZM20.4738 20.0761C20.4123 20.0134 20.4123 19.9143 20.4738 19.8516L20.9404 20.3091C21.128 20.1177 21.128 19.81 20.9404 19.6186L20.4738 20.0761ZM20.074 19.6685L20.4738 20.0761L20.9404 19.6186L20.5406 19.211L20.074 19.6685ZM20.3121 19.6685C20.2471 19.7347 20.139 19.7347 20.074 19.6685L20.5406 19.211C20.3494 19.016 20.0367 19.016 19.8456 19.211L20.3121 19.6685ZM20.0565 19.9291L20.3121 19.6685L19.8456 19.211L19.59 19.4716L20.0565 19.9291ZM19.3905 19.8657C19.4846 19.8939 19.5743 19.9332 19.6581 19.9823L19.9884 19.4185C19.8603 19.3435 19.7227 19.2831 19.5778 19.2397L19.3905 19.8657ZM19.1574 19.2409V19.5527H19.8109V19.2409H19.1574ZM19.3226 19.4028C19.2254 19.4028 19.1574 19.3243 19.1574 19.2409H19.8109C19.8109 18.9755 19.5983 18.7494 19.3226 18.7494V19.4028ZM18.7572 19.4028H19.3226V18.7494H18.7572V19.4028ZM19.0399 22.1209C19.6055 22.1209 20.0532 21.6551 20.0532 21.0941H19.3997C19.3997 21.3064 19.2326 21.4675 19.0399 21.4675V22.1209ZM18.0267 21.0941C18.0267 21.6551 18.4743 22.1209 19.0399 22.1209V21.4675C18.8472 21.4675 18.6801 21.3064 18.6801 21.0941H18.0267ZM19.0399 20.0673C18.4743 20.0673 18.0267 20.5331 18.0267 21.0941H18.6801C18.6801 20.8818 18.8472 20.7207 19.0399 20.7207V20.0673ZM20.0532 21.0941C20.0532 20.5331 19.6055 20.0673 19.0399 20.0673V20.7207C19.2326 20.7207 19.3997 20.8818 19.3997 21.0941H20.0532ZM23.9882 13.7045C23.6456 13.7045 23.3788 13.9859 23.3788 14.3195H24.0322C24.0322 14.3346 24.0185 14.3579 23.9882 14.3579V13.7045ZM24.9776 13.7045H23.9882V14.3579H24.9776V13.7045ZM25.587 14.3195C25.587 13.9859 25.3202 13.7045 24.9776 13.7045V14.3579C24.9473 14.3579 24.9336 14.3346 24.9336 14.3195H25.587ZM25.587 14.8652V14.3195H24.9336V14.8652H25.587ZM26.0188 14.8417C25.8114 14.7202 25.5886 14.6224 25.354 14.5522L25.1666 15.1782C25.3504 15.2332 25.5254 15.3099 25.6886 15.4055L26.0188 14.8417ZM26.0678 14.4387L25.6204 14.8949L26.087 15.3524L26.5343 14.8962L26.0678 14.4387ZM26.9341 14.4387C26.6956 14.1955 26.3063 14.1955 26.0678 14.4387L26.5343 14.8962C26.5166 14.9142 26.4852 14.9142 26.4676 14.8962L26.9341 14.4387ZM27.6337 15.1522L26.9341 14.4387L26.4676 14.8962L27.1672 15.6097L27.6337 15.1522ZM27.6337 16.0173C27.8687 15.7777 27.8687 15.3918 27.6337 15.1522L27.1672 15.6097C27.1594 15.6018 27.1565 15.5921 27.1565 15.5848C27.1565 15.5774 27.1594 15.5677 27.1672 15.5599L27.6337 16.0173ZM27.1634 16.497L27.6337 16.0173L27.1672 15.5599L26.6968 16.0395L27.1634 16.497ZM27.4419 16.6795C27.3858 16.4844 27.3116 16.2972 27.2212 16.1199L26.639 16.4166C26.7106 16.5571 26.7695 16.7055 26.814 16.8602L27.4419 16.6795ZM27.6632 16.4431H27.128V17.0966H27.6632V16.4431ZM28.2726 17.0581C28.2726 16.7245 28.0057 16.4431 27.6632 16.4431V17.0966C27.6328 17.0966 27.6191 17.0733 27.6191 17.0581H28.2726ZM28.2726 18.0671V17.0581H27.6191V18.0671H28.2726ZM27.6632 18.6821C28.0057 18.6821 28.2726 18.4007 28.2726 18.0671H27.6191C27.6191 18.0519 27.6328 18.0287 27.6632 18.0287V18.6821ZM27.128 18.6821H27.6632V18.0287H27.128V18.6821ZM27.2448 18.9581C27.3246 18.7949 27.3908 18.6236 27.4419 18.4457L26.814 18.2651C26.7734 18.4061 26.7209 18.5418 26.6577 18.6712L27.2448 18.9581ZM27.6337 19.0439L27.1845 18.5859L26.718 19.0434L27.1672 19.5014L27.6337 19.0439ZM27.6337 19.9091C27.8687 19.6695 27.8687 19.2836 27.6337 19.0439L27.1672 19.5014C27.1594 19.4936 27.1565 19.4839 27.1565 19.4765C27.1565 19.4692 27.1594 19.4595 27.1672 19.4516L27.6337 19.9091ZM26.9341 20.6226L27.6337 19.9091L27.1672 19.4516L26.4676 20.1651L26.9341 20.6226ZM26.0678 20.6226C26.3063 20.8658 26.6956 20.8658 26.9341 20.6226L26.4676 20.1651C26.4853 20.1471 26.5166 20.1471 26.5343 20.1651L26.0678 20.6226ZM25.66 20.2068L26.0678 20.6226L26.5343 20.1651L26.1265 19.7493L25.66 20.2068ZM25.354 20.573C25.6053 20.4978 25.8432 20.3909 26.0631 20.2571L25.7234 19.6989C25.5503 19.8042 25.3636 19.8881 25.1666 19.947L25.354 20.573ZM25.587 20.8058V20.26H24.9336V20.8058H25.587ZM24.9776 21.4208C25.3202 21.4208 25.587 21.1394 25.587 20.8058H24.9336C24.9336 20.7906 24.9473 20.7673 24.9776 20.7673V21.4208ZM23.9882 21.4208H24.9776V20.7673H23.9882V21.4208ZM23.3788 20.8058C23.3788 21.1394 23.6456 21.4208 23.9882 21.4208V20.7673C24.0185 20.7673 24.0322 20.7906 24.0322 20.8058H23.3788ZM23.3788 20.26V20.8058H24.0322V20.26H23.3788ZM22.9581 20.2901C23.1624 20.4085 23.3815 20.5041 23.6118 20.573L23.7992 19.947C23.6187 19.893 23.4467 19.8181 23.286 19.7248L22.9581 20.2901ZM22.9764 20.6226L23.3554 20.2362L22.8888 19.7787L22.5099 20.1651L22.9764 20.6226ZM22.1101 20.6226C22.3486 20.8658 22.738 20.8658 22.9764 20.6226L22.5099 20.1651C22.5276 20.1471 22.559 20.1471 22.5767 20.1651L22.1101 20.6226ZM21.4105 19.9091L22.1101 20.6226L22.5767 20.1651L21.877 19.4516L21.4105 19.9091ZM21.4105 19.0439C21.1755 19.2836 21.1755 19.6695 21.4105 19.9091L21.877 19.4516C21.8848 19.4595 21.8877 19.4692 21.8877 19.4765C21.8877 19.4839 21.8848 19.4936 21.877 19.5014L21.4105 19.0439ZM21.8078 18.6388L21.4105 19.0439L21.877 19.5014L22.2744 19.0963L21.8078 18.6388ZM21.5239 18.4457C21.5812 18.6451 21.6575 18.8363 21.7506 19.0171L22.3316 18.718C22.2578 18.5747 22.1973 18.4232 22.1518 18.2651L21.5239 18.4457ZM21.3026 18.6821H21.8378V18.0287H21.3026V18.6821ZM20.6932 18.0671C20.6932 18.4007 20.9601 18.6821 21.3026 18.6821V18.0287C21.333 18.0287 21.3467 18.0519 21.3467 18.0671H20.6932ZM20.6932 17.0581V18.0671H21.3467V17.0581H20.6932ZM21.3026 16.4431C20.9601 16.4431 20.6932 16.7245 20.6932 17.0581H21.3467C21.3467 17.0733 21.333 17.0966 21.3026 17.0966V16.4431ZM21.8378 16.4431H21.3026V17.0966H21.8378V16.4431ZM21.775 16.0617C21.6708 16.2561 21.5862 16.463 21.5239 16.6795L22.1518 16.8602C22.2012 16.6885 22.2683 16.5245 22.3509 16.3705L21.775 16.0617ZM21.4105 16.0173L21.8297 16.4448L22.2962 15.9873L21.877 15.5599L21.4105 16.0173ZM21.4105 15.1522C21.1755 15.3918 21.1755 15.7777 21.4105 16.0173L21.877 15.5599C21.8848 15.5677 21.8877 15.5774 21.8877 15.5848C21.8877 15.5921 21.8848 15.6018 21.877 15.6097L21.4105 15.1522ZM22.1101 14.4387L21.4105 15.1522L21.877 15.6097L22.5767 14.8962L22.1101 14.4387ZM22.9764 14.4387C22.738 14.1955 22.3486 14.1955 22.1101 14.4387L22.5767 14.8962C22.559 14.9142 22.5276 14.9142 22.5099 14.8962L22.9764 14.4387ZM23.3956 14.8662L22.9764 14.4387L22.5099 14.8962L22.9291 15.3237L23.3956 14.8662ZM23.6118 14.5522C23.3983 14.6161 23.1945 14.7029 23.0032 14.8096L23.3215 15.3802C23.4719 15.2963 23.6319 15.2283 23.7992 15.1782L23.6118 14.5522ZM23.3788 14.3195V14.8652H24.0322V14.3195H23.3788ZM25.3576 17.5626C25.3576 18.0649 24.96 18.4611 24.4829 18.4611V19.1145C25.3329 19.1145 26.011 18.4137 26.011 17.5626H25.3576ZM24.4829 16.6641C24.96 16.6641 25.3576 17.0603 25.3576 17.5626H26.011C26.011 16.7116 25.3329 16.0107 24.4829 16.0107V16.6641ZM23.6082 17.5626C23.6082 17.0603 24.0058 16.6641 24.4829 16.6641V16.0107C23.6329 16.0107 22.9548 16.7116 22.9548 17.5626H23.6082ZM24.4829 18.4611C24.0058 18.4611 23.6082 18.0649 23.6082 17.5626H22.9548C22.9548 18.4137 23.6329 19.1145 24.4829 19.1145V18.4611Z" fill="#363636"/>
</g>
</g>
<defs>
<clipPath id="clip0_304_2955">
<rect width="48" height="48" fill="white"/>
</clipPath>
<clipPath id="clip1_304_2955">
<rect width="48" height="48" fill="white"/>
</clipPath>
</defs>
</svg>
