<svg width="31" height="22" viewBox="0 0 31 22" fill="none" xmlns="http://www.w3.org/2000/svg">
<g clip-path="url(#clip0_358_5703)">
<path d="M2.90024 4.92358L6.15093 5.17429L3.05346 8.58288L0.105469 8.12803L2.90024 4.92358Z" fill="url(#paint0_linear_358_5703)"/>
<path d="M6.51581 5.20801L10.1145 5.47338L6.70733 9.13267L3.45312 8.73462L6.51581 5.20801Z" fill="url(#paint1_linear_358_5703)"/>
<path d="M10.4845 5.63447L18.0613 15.2408L29.2449 0.260986L31.0028 3.23288L18.031 21.9651L6.96875 9.47696L10.4845 5.63447Z" fill="url(#paint2_linear_358_5703)"/>
<path d="M3.46875 9.12842L6.46845 9.5146L17.5888 22L14.3337 21.9572L3.46875 9.12842Z" fill="url(#paint3_linear_358_5703)"/>
<path d="M2.98936 9.047L13.7917 21.9488L10.8106 21.9572L0 8.54932L2.98936 9.047Z" fill="url(#paint4_linear_358_5703)"/>
<path d="M21.1841 0L24.5617 0.0309597L15.5807 11.5207L13.9375 9.32981L21.1841 0Z" fill="url(#paint5_linear_358_5703)"/>
<path d="M25.0344 0H28.9749L18.029 14.8381L15.7773 11.7402L25.0344 0Z" fill="url(#paint6_linear_358_5703)"/>
</g>
<defs>
<linearGradient id="paint0_linear_358_5703" x1="15.4999" y1="6.39363e-05" x2="15.4999" y2="22.0001" gradientUnits="userSpaceOnUse">
<stop stop-color="#AABDFF"/>
<stop offset="1" stop-color="#577CFF"/>
</linearGradient>
<linearGradient id="paint1_linear_358_5703" x1="15.4977" y1="2.81621e-05" x2="15.4977" y2="22" gradientUnits="userSpaceOnUse">
<stop stop-color="#AABDFF"/>
<stop offset="1" stop-color="#577CFF"/>
</linearGradient>
<linearGradient id="paint2_linear_358_5703" x1="15.5028" y1="4.03453e-05" x2="15.5028" y2="22" gradientUnits="userSpaceOnUse">
<stop stop-color="#AABDFF"/>
<stop offset="1" stop-color="#577CFF"/>
</linearGradient>
<linearGradient id="paint3_linear_358_5703" x1="15.4972" y1="-3.1973e-05" x2="15.4972" y2="22" gradientUnits="userSpaceOnUse">
<stop stop-color="#AABDFF"/>
<stop offset="1" stop-color="#577CFF"/>
</linearGradient>
<linearGradient id="paint4_linear_358_5703" x1="15.5" y1="1.67281e-05" x2="15.5" y2="22" gradientUnits="userSpaceOnUse">
<stop stop-color="#AABDFF"/>
<stop offset="1" stop-color="#577CFF"/>
</linearGradient>
<linearGradient id="paint5_linear_358_5703" x1="15.4973" y1="0" x2="15.4973" y2="22" gradientUnits="userSpaceOnUse">
<stop stop-color="#AABDFF"/>
<stop offset="1" stop-color="#577CFF"/>
</linearGradient>
<linearGradient id="paint6_linear_358_5703" x1="15.5007" y1="0" x2="15.5007" y2="22" gradientUnits="userSpaceOnUse">
<stop stop-color="#AABDFF"/>
<stop offset="1" stop-color="#577CFF"/>
</linearGradient>
<clipPath id="clip0_358_5703">
<rect width="31" height="22" fill="white"/>
</clipPath>
</defs>
</svg>
