<svg width="24" height="22" viewBox="0 0 24 22" fill="none" xmlns="http://www.w3.org/2000/svg">
<g clip-path="url(#clip0_322_183)">
<path d="M5.4016 16.4114V15.8896H4.87986C2.89672 15.8896 1.28906 14.2821 1.28906 12.2989V5.2313C1.28906 2.63795 3.39138 0.535645 5.98471 0.535645H18.5065C21.0998 0.535645 23.2021 2.63796 23.2021 5.2313V11.194C23.2021 13.7874 21.0998 15.8896 18.5065 15.8896H8.93101H8.69966L8.54434 16.0611L5.4016 19.5304V16.4114Z" stroke="white" stroke-width="1.04348"/>
<path d="M7.02785 9.42118C7.60415 9.42118 8.07133 8.954 8.07133 8.37771C8.07133 7.80141 7.60415 7.33423 7.02785 7.33423C6.45156 7.33423 5.98438 7.80141 5.98438 8.37771C5.98438 8.954 6.45156 9.42118 7.02785 9.42118Z" stroke="white" stroke-width="1.04348"/>
<path d="M12.2466 9.42118C12.8229 9.42118 13.2901 8.954 13.2901 8.37771C13.2901 7.80141 12.8229 7.33423 12.2466 7.33423C11.6703 7.33423 11.2031 7.80141 11.2031 8.37771C11.2031 8.954 11.6703 9.42118 12.2466 9.42118Z" stroke="white" stroke-width="1.04348"/>
<path d="M17.4654 9.42118C18.0417 9.42118 18.5088 8.954 18.5088 8.37771C18.5088 7.80141 18.0417 7.33423 17.4654 7.33423C16.8891 7.33423 16.4219 7.80141 16.4219 8.37771C16.4219 8.954 16.8891 9.42118 17.4654 9.42118Z" stroke="white" stroke-width="1.04348"/>
</g>
<defs>
<clipPath id="clip0_322_183">
<rect width="24" height="21.913" fill="white" transform="translate(0 -0.00146484)"/>
</clipPath>
</defs>
</svg>
