<svg width="24" height="23" viewBox="0 0 24 23" fill="none" xmlns="http://www.w3.org/2000/svg">
<path d="M20.7761 1.50171H3.73268C3.44453 1.50171 3.21094 1.7353 3.21094 2.02345V14.2843C3.21094 14.5725 3.44453 14.8061 3.73268 14.8061H20.7761C21.0643 14.8061 21.2979 14.5725 21.2979 14.2843V2.02345C21.2979 1.7353 21.0643 1.50171 20.7761 1.50171Z" stroke="white" stroke-width="1.04348"/>
<path d="M4.64062 3.93605C4.64062 3.64789 4.87422 3.41431 5.16236 3.41431H19.3363C19.6244 3.41431 19.8581 3.64789 19.8581 3.93605V12.8491C19.8581 13.1373 19.6244 13.3708 19.3363 13.3708H5.16236C4.87422 13.3708 4.64062 13.1373 4.64062 12.8491V3.93605Z" stroke="white" stroke-width="1.04348"/>
<path d="M2.99308 15.2878C3.05115 15.0556 3.25983 14.8926 3.49924 14.8926H21.0003C21.2396 14.8926 21.4483 15.0556 21.5063 15.2878L22.8977 20.853C22.98 21.1824 22.731 21.5013 22.3915 21.5013H2.10793C1.7685 21.5013 1.51944 21.1824 1.60177 20.853L2.99308 15.2878Z" stroke="white" stroke-width="1.04348"/>
<path d="M12.2463 10.0238C13.5429 10.0238 14.5941 8.97262 14.5941 7.67595C14.5941 6.37928 13.5429 5.32812 12.2463 5.32812C10.9496 5.32812 9.89844 6.37928 9.89844 7.67595C9.89844 8.97262 10.9496 10.0238 12.2463 10.0238Z" stroke="white" stroke-width="1.04348"/>
<path d="M16.0741 13.415C16.0741 11.8301 14.361 10.5454 12.248 10.5454C10.1349 10.5454 8.42188 11.8301 8.42188 13.415" stroke="white" stroke-width="1.04348"/>
</svg>
