<svg width="24" height="24" viewBox="0 0 24 24" fill="none" xmlns="http://www.w3.org/2000/svg">
<path d="M15.2431 10.12C16.7876 12.7952 17.7608 15.4345 18.0992 17.5254C18.2689 18.5729 18.2741 19.4533 18.1331 20.1207C17.9919 20.7884 17.72 21.1814 17.3849 21.3749C17.0497 21.5684 16.5735 21.6074 15.9246 21.3957C15.2761 21.1842 14.5163 20.7394 13.6939 20.0689C12.0522 18.7303 10.2533 16.5679 8.70877 13.8927C7.16421 11.2174 6.19099 8.57825 5.85258 6.48727C5.68304 5.43976 5.67772 4.5594 5.81882 3.89196C5.95998 3.22426 6.23179 2.83131 6.567 2.63778C6.90221 2.44425 7.37841 2.40533 8.02724 2.61693C8.67582 2.82845 9.43556 3.27324 10.258 3.94382C11.8996 5.28237 13.6985 7.44478 15.2431 10.12Z" stroke="white" stroke-width="1.09091"/>
<path d="M15.2431 13.8929C13.6986 16.5682 11.8996 18.7306 10.258 20.0691C9.43556 20.7397 8.67582 21.1845 8.02724 21.396C7.37841 21.6076 6.90221 21.5687 6.56699 21.3751C6.23179 21.1816 5.95998 20.7887 5.81883 20.1209C5.67772 19.4535 5.68304 18.5731 5.85258 17.5257C6.19099 15.4347 7.16421 12.7955 8.70877 10.1203C10.2533 7.44503 12.0523 5.28262 13.6939 3.94406C14.5163 3.27349 15.2761 2.8287 15.9246 2.61718C16.5735 2.40558 17.0497 2.44449 17.3849 2.63803C17.7201 2.83155 17.9919 3.2245 18.133 3.89221C18.2742 4.55965 18.2688 5.44001 18.0993 6.48752C17.7609 8.5785 16.7876 11.2177 15.2431 13.8929Z" stroke="white" stroke-width="1.09091"/>
<path d="M11.9741 15.7791C8.88502 15.7791 6.11284 15.3024 4.1328 14.55C3.14085 14.1731 2.37578 13.7375 1.86832 13.2816C1.36064 12.8255 1.15625 12.3936 1.15625 12.0065C1.15625 11.6195 1.36064 11.1876 1.86832 10.7315C2.37578 10.2755 3.14085 9.83998 4.1328 9.46305C6.11284 8.71062 8.88502 8.23389 11.9741 8.23389C15.0632 8.23389 17.8354 8.71062 19.8154 9.46305C20.8074 9.83998 21.5724 10.2755 22.0799 10.7315C22.5876 11.1876 22.792 11.6195 22.792 12.0065C22.792 12.3936 22.5876 12.8255 22.0799 13.2816C21.5724 13.7375 20.8074 14.1731 19.8154 14.55C17.8354 15.3024 15.0632 15.7791 11.9741 15.7791Z" stroke="white" stroke-width="1.09091"/>
<path d="M11.9744 12.8243C12.4262 12.8243 12.7925 12.458 12.7925 12.0061C12.7925 11.5543 12.4262 11.188 11.9744 11.188C11.5225 11.188 11.1562 11.5543 11.1562 12.0061C11.1562 12.458 11.5225 12.8243 11.9744 12.8243Z" stroke="white" stroke-width="1.09091"/>
</svg>
