<svg width="24" height="23" viewBox="0 0 24 23" fill="none" xmlns="http://www.w3.org/2000/svg">
<path d="M7.46323 16.0798L5.23403 14.9619L4.76626 15.8945L6.99546 17.0125L7.46323 16.0798ZM7.46305 17.0126L9.69094 15.8964L9.22356 14.9636L6.99565 16.0797L7.46305 17.0126ZM13.5426 9.65881V4.95721H12.4991V9.65881H13.5426ZM1.96536 9.66596V4.9572H0.921875V9.66596H1.96536ZM7.75109 19.7315V16.5461H6.70761V19.7315H7.75109ZM18.2333 20.8024H8.82203V21.8459H18.2333V20.8024ZM19.449 10.1754V19.5867H20.4925V10.1754H19.449ZM19.449 19.5867C19.449 20.2582 18.9047 20.8024 18.2333 20.8024V21.8459C19.4811 21.8459 20.4925 20.8344 20.4925 19.5867H19.449ZM1.96536 4.9572C1.96536 4.28578 2.50965 3.74148 3.18108 3.74148V2.698C1.93335 2.698 0.921875 3.70948 0.921875 4.9572H1.96536ZM6.70761 19.7315C6.70761 20.8993 7.65426 21.8459 8.82203 21.8459V20.8024C8.23057 20.8024 7.75109 20.323 7.75109 19.7315H6.70761ZM13.5426 4.95721C13.5426 3.71244 12.5358 2.70218 11.291 2.698L11.2875 3.74148C11.9574 3.74372 12.4991 4.28736 12.4991 4.95721H13.5426ZM9.69094 15.8964C12.0518 14.7137 13.5426 12.2993 13.5426 9.65881H12.4991C12.4991 11.9045 11.2313 13.9576 9.22356 14.9636L9.69094 15.8964ZM5.23403 14.9619C3.23037 13.957 1.96536 11.9074 1.96536 9.66596H0.921875C0.921875 12.3023 2.4097 14.7128 4.76626 15.8945L5.23403 14.9619Z" fill="white"/>
<path d="M4.33291 3.86211C5.00434 3.86211 5.54864 3.31782 5.54864 2.64639C5.54864 1.97496 5.00434 1.43066 4.33291 1.43066C3.66149 1.43066 3.11719 1.97496 3.11719 2.64639C3.11719 3.31782 3.66149 3.86211 4.33291 3.86211Z" stroke="white" stroke-width="1.04348"/>
<path d="M10.122 3.86211C10.7934 3.86211 11.3377 3.31782 11.3377 2.64639C11.3377 1.97496 10.7934 1.43066 10.122 1.43066C9.45055 1.43066 8.90625 1.97496 8.90625 2.64639C8.90625 3.31782 9.45055 3.86211 10.122 3.86211Z" stroke="white" stroke-width="1.04348"/>
<path d="M19.9915 9.94054C21.4323 9.94054 22.6002 8.77258 22.6002 7.33184C22.6002 5.8911 21.4323 4.72314 19.9915 4.72314C18.5508 4.72314 17.3828 5.8911 17.3828 7.33184C17.3828 8.77258 18.5508 9.94054 19.9915 9.94054Z" stroke="white" stroke-width="1.04348"/>
</svg>
