<svg width="24" height="23" viewBox="0 0 24 23" fill="none" xmlns="http://www.w3.org/2000/svg">
<g clip-path="url(#clip0_322_175)">
<path d="M3.8283 12.5699H17.0944C17.4555 12.5699 17.7483 12.8627 17.7483 13.2238V14.7366C17.7483 15.3046 18.4227 15.6026 18.8427 15.22L22.4225 11.9592C22.7073 11.6998 22.7073 11.2518 22.4225 10.9924L18.8427 7.7316C18.4227 7.34909 17.7483 7.64703 17.7483 8.21507V9.72777C17.7483 10.089 17.4555 10.3817 17.0944 10.3817H3.82812" stroke="white" stroke-width="1.04348"/>
<path d="M0.000175527 19.3067H6.95347C7.31465 19.3067 7.60745 19.5995 7.60745 19.9607V21.4734C7.60745 22.0414 8.28185 22.3394 8.70179 21.9569L12.2816 18.6961C12.5664 18.4367 12.5664 17.9885 12.2816 17.7291L8.70179 14.4684C8.28185 14.0859 7.60745 14.3838 7.60745 14.9519V16.4646C7.60745 16.8258 7.31465 17.1186 6.95347 17.1186H0" stroke="white" stroke-width="1.04348"/>
<path d="M0.000175527 5.83163H6.95347C7.31465 5.83163 7.60745 6.12443 7.60745 6.4856V7.9983C7.60745 8.56633 8.28185 8.86429 8.70179 8.48177L12.2816 5.22102C12.5664 4.96161 12.5664 4.51348 12.2816 4.25408L8.70179 0.99332C8.28185 0.610806 7.60745 0.90875 7.60745 1.4768V2.98949C7.60745 3.35066 7.31465 3.64346 6.95347 3.64346H0" stroke="white" stroke-width="1.04348"/>
</g>
<defs>
<clipPath id="clip0_322_175">
<rect width="24" height="22.9565" fill="white" transform="translate(0 -0.00317383)"/>
</clipPath>
</defs>
</svg>
