<svg width="35" height="36" viewBox="0 0 35 36" fill="none" xmlns="http://www.w3.org/2000/svg">
<g clip-path="url(#clip0_401_1508)">
<g clip-path="url(#clip1_401_1508)">
<path d="M17.3284 27.5715C17.6639 28.1525 18.4069 28.3516 18.9879 28.0161C19.569 27.6806 19.7681 26.9376 19.4326 26.3566L17.5075 23.0222C17.172 22.4411 16.429 22.242 15.8479 22.5775C15.2669 22.913 15.0678 23.656 15.4033 24.237L17.3284 27.5715Z" stroke="#363636" stroke-width="1.42"/>
<path d="M19.1436 24.4353L15.8096 26.3602" stroke="#363636" stroke-width="1.42"/>
<mask id="mask0_401_1508" style="mask-type:luminance" maskUnits="userSpaceOnUse" x="10" y="10" width="15" height="7">
<path d="M23.381 10.6101H11.6191C11.0669 10.6101 10.6191 11.0578 10.6191 11.6101V15.2768C10.6191 15.8291 11.0669 16.2768 11.6191 16.2768H23.381C23.9333 16.2768 24.381 15.8291 24.381 15.2768V11.6101C24.381 11.0578 23.9333 10.6101 23.381 10.6101Z" fill="white"/>
</mask>
<g mask="url(#mask0_401_1508)">
<path d="M23.381 10.6101H11.6191C11.0669 10.6101 10.6191 11.0578 10.6191 11.6101V15.2768C10.6191 15.8291 11.0669 16.2768 11.6191 16.2768H23.381C23.9333 16.2768 24.381 15.8291 24.381 15.2768V11.6101C24.381 11.0578 23.9333 10.6101 23.381 10.6101Z" stroke="#363636" stroke-width="2.84"/>
</g>
<path d="M13.1875 15.8242H21.8125C21.9727 15.8242 22.1025 15.9541 22.1025 16.1143V17.3652C22.1026 17.9095 22.362 18.4211 22.8008 18.7432L25.1719 20.4824C25.2463 20.5371 25.29 20.6244 25.29 20.7168V34.9961C25.2899 35.1562 25.1601 35.2861 25 35.2861H10C9.83991 35.2861 9.71008 35.1562 9.70996 34.9961V20.7168C9.70996 20.6244 9.75366 20.5371 9.82812 20.4824L12.1992 18.7432C12.638 18.4211 12.8974 17.9095 12.8975 17.3652V16.1143C12.8975 15.9541 13.0273 15.8242 13.1875 15.8242Z" stroke="#363636" stroke-width="1.42"/>
<path d="M22.8606 22.1343H12.1377V32.8572H22.8606V22.1343Z" stroke="#363636" stroke-width="1.42"/>
</g>
</g>
<defs>
<clipPath id="clip0_401_1508">
<rect width="35" height="36" fill="white"/>
</clipPath>
<clipPath id="clip1_401_1508">
<rect width="35" height="36" fill="white"/>
</clipPath>
</defs>
</svg>
