<svg width="36" height="36" viewBox="0 0 36 36" fill="none" xmlns="http://www.w3.org/2000/svg">
<g clip-path="url(#clip0_401_1533)">
<g clip-path="url(#clip1_401_1533)">
<path d="M19.2266 29.8988V8.69539C19.2266 8.34926 19.5072 8.06867 19.8533 8.06867H23.5271C24.0715 8.06867 24.357 7.42238 23.9905 7.01992L17.9742 0.414665C17.7256 0.141726 17.2962 0.141727 17.0476 0.414666L11.0313 7.01993C10.6648 7.42238 10.9503 8.06867 11.4947 8.06867H15.1685C15.5146 8.06867 15.7952 8.34926 15.7952 8.69539V29.899" stroke="#363636" stroke-width="1.42"/>
<path d="M29.7911 35.9057V24.6024C29.7911 24.2562 30.0717 23.9756 30.4178 23.9756H34.0916C34.636 23.9756 34.9215 23.3293 34.5549 22.9269L28.5387 16.3216C28.2901 16.0487 27.8606 16.0487 27.612 16.3216L21.5958 22.9269C21.2292 23.3293 21.5148 23.9756 22.0591 23.9756H25.7329C26.079 23.9756 26.3596 24.2562 26.3596 24.6024V35.906" stroke="#363636" stroke-width="1.42"/>
<path d="M8.6602 35.9057V24.6024C8.6602 24.2562 8.9408 23.9756 9.28693 23.9756H12.9607C13.5051 23.9756 13.7906 23.3293 13.4241 22.9269L7.40782 16.3216C7.15922 16.0487 6.72974 16.0487 6.48115 16.3216L0.464913 22.9269C0.0983497 23.3293 0.383884 23.9756 0.928252 23.9756H4.60204C4.94817 23.9756 5.22876 24.2562 5.22876 24.6024V35.906" stroke="#363636" stroke-width="1.42"/>
</g>
</g>
<defs>
<clipPath id="clip0_401_1533">
<rect width="35.02" height="36" fill="white"/>
</clipPath>
<clipPath id="clip1_401_1533">
<rect width="36" height="37" fill="white" transform="translate(-0.490234 -0.5)"/>
</clipPath>
</defs>
</svg>
