<svg width="36" height="36" viewBox="0 0 36 36" fill="none" xmlns="http://www.w3.org/2000/svg">
<g clip-path="url(#clip0_401_1520)">
<path d="M24.5983 25.4064C28.572 21.4327 28.572 14.9901 24.5983 11.0164C20.6246 7.0427 14.1819 7.0427 10.2082 11.0164C6.23451 14.9901 6.2345 21.4327 10.2082 25.4064C14.1819 29.3802 20.6246 29.3802 24.5983 25.4064Z" stroke="#363636" stroke-width="1.43"/>
<path d="M29.7243 28.2224L27.4141 30.5326V32.8428L29.7243 35.153H32.0345L34.3447 32.8428V30.5326L32.0345 28.2224H29.7243Z" stroke="#363636" stroke-width="1.43"/>
<path d="M24.7197 25.5271L28.57 29.3774" stroke="#363636" stroke-width="1.43"/>
<path d="M10.0886 10.8958L6.23828 7.04541" stroke="#363636" stroke-width="1.43"/>
<path d="M6.11743 6.92497C7.11409 5.92831 7.11409 4.31241 6.11744 3.31575C5.12078 2.3191 3.50488 2.3191 2.50822 3.31575C1.51156 4.31241 1.51156 5.92831 2.50822 6.92497C3.50488 7.92163 5.12078 7.92163 6.11743 6.92497Z" stroke="#363636" stroke-width="1.43"/>
<path d="M7.27271 32.7221C8.26937 31.7254 8.26936 30.1095 7.27271 29.1129C6.27605 28.1162 4.66015 28.1162 3.66349 29.1129C2.66684 30.1095 2.66684 31.7254 3.66349 32.7221C4.66015 33.7187 6.27605 33.7187 7.27271 32.7221Z" stroke="#363636" stroke-width="1.43"/>
<path d="M3.61487 14.8182C4.18623 14.2469 4.18624 13.3205 3.61487 12.7491C3.04351 12.1778 2.11714 12.1778 1.54578 12.7491C0.974413 13.3205 0.974413 14.2469 1.54578 14.8182C2.11714 15.3896 3.04351 15.3896 3.61487 14.8182Z" stroke="#363636" stroke-width="1.43"/>
<path d="M7.77805 14.7464L3.92773 13.9763" stroke="#363636" stroke-width="1.43"/>
<path d="M10.4721 25.9121L7.00684 29.3774" stroke="#363636" stroke-width="1.43"/>
</g>
<defs>
<clipPath id="clip0_401_1520">
<rect width="36" height="36" fill="white"/>
</clipPath>
</defs>
</svg>
