<svg width="48" height="48" viewBox="0 0 48 48" fill="none" xmlns="http://www.w3.org/2000/svg">
<rect width="48" height="48" rx="24" fill="#C9A55A"/>
<g clip-path="url(#clip0_341_8092)">
<g clip-path="url(#clip1_341_8092)">
<path d="M13.9866 23.4951C14.0433 26.1277 15.1138 28.6369 16.9748 30.4999C18.8359 32.3628 21.344 33.4357 23.9766 33.4951C26.6103 33.4363 29.1198 32.3638 30.9825 30.5011C32.8453 28.6383 33.9177 26.1288 33.9766 23.4951V22.9951H33.4766L32.9766 23.4951C32.9182 25.8637 31.9513 28.1192 30.276 29.7945C28.6006 31.4699 26.3451 32.4368 23.9766 32.4951C21.6092 32.4362 19.3552 31.4687 17.6818 29.7932C16.0083 28.1177 15.0436 25.8626 14.9876 23.4951L14.4766 22.9951H13.9766L13.9866 23.4951Z" fill="black"/>
<path d="M23.4766 32.4951C23.6436 30.1621 21.9766 22.9951 13.9766 22.9951" stroke="black"/>
<path d="M21.7734 26.7452C22.7734 24.2452 26.9734 22.5912 33.9734 23.0912" stroke="black"/>
<path d="M14.9766 22.9951V22.0071C14.9765 21.6733 15.0753 21.3469 15.2606 21.0691C15.4663 20.7601 15.7681 20.5274 16.1193 20.4071C16.4705 20.2867 16.8515 20.2853 17.2036 20.4031L17.4266 20.4771C17.4326 20.4792 17.439 20.4798 17.4454 20.4789C17.4517 20.4779 17.4577 20.4755 17.4629 20.4718C17.4681 20.4681 17.4723 20.4632 17.4752 20.4575C17.4781 20.4518 17.4796 20.4455 17.4796 20.4391V19.7091C17.4797 19.1816 17.6097 18.6621 17.858 18.1967C18.1064 17.7312 18.4654 17.334 18.9036 17.0401C19.4333 16.6848 20.0567 16.4951 20.6946 16.4951H21.4446C21.4554 16.4952 21.4661 16.4926 21.4757 16.4875C21.4853 16.4824 21.4935 16.4751 21.4996 16.4661L21.6476 16.2431C21.9031 15.8595 22.2493 15.5448 22.6556 15.3271C23.0619 15.1094 23.5156 14.9954 23.9766 14.9951C24.4372 14.9957 24.8905 15.1099 25.2964 15.3276C25.7023 15.5453 26.0483 15.8597 26.3036 16.2431L26.4516 16.4661C26.4576 16.4751 26.4658 16.4824 26.4754 16.4875C26.485 16.4926 26.4957 16.4952 26.5066 16.4951H27.2566C27.8944 16.4951 28.5178 16.6848 29.0476 17.0401C29.486 17.334 29.8454 17.7313 30.0939 18.197C30.3424 18.6626 30.4725 19.1823 30.4726 19.7101V20.4401C30.4726 20.4464 30.4741 20.4526 30.4769 20.4581C30.4798 20.4637 30.4839 20.4686 30.489 20.4723C30.494 20.476 30.4999 20.4784 30.5061 20.4794C30.5122 20.4804 30.5186 20.48 30.5246 20.4781L30.7476 20.4041C31.0993 20.2868 31.48 20.2884 31.8307 20.4088C32.1815 20.5291 32.4829 20.7615 32.6886 21.0701C32.8738 21.3479 32.9726 21.6743 32.9726 22.0081V22.9961" stroke="black"/>
</g>
</g>
<defs>
<clipPath id="clip0_341_8092">
<rect width="20.02" height="18.97" fill="white" transform="translate(13.9844 14.51)"/>
</clipPath>
<clipPath id="clip1_341_8092">
<rect width="20.036" height="19" fill="white" transform="translate(13.9766 14.4951)"/>
</clipPath>
</defs>
</svg>
