<svg width="48" height="48" viewBox="0 0 48 48" fill="none" xmlns="http://www.w3.org/2000/svg">
<rect width="48" height="48" rx="24" fill="#C9A55A"/>
<g clip-path="url(#clip0_341_8057)">
<g clip-path="url(#clip1_341_8057)">
<path d="M14.0098 24C14.2466 29.5883 18.6563 34 24 34C29.3437 34 33.7632 29.5883 34 24V23.5H33.5L33 24C32.7647 29.0834 28.7435 33 24 33C19.2565 33 15.246 29.0834 15.0107 24L14.5 23.5H14L14.0098 24Z" fill="black"/>
<path d="M24 33.5C24.1667 31.1667 22.5 24 14.5 24" stroke="black"/>
<path d="M24.011 33.5C23.8444 31.1667 25.4993 24 33.511 24" stroke="black"/>
<path d="M24 23.5C24.8284 23.5 25.5 22.8284 25.5 22C25.5 21.1716 24.8284 20.5 24 20.5C23.1716 20.5 22.5 21.1716 22.5 22C22.5 22.8284 23.1716 23.5 24 23.5Z" stroke="black"/>
<path fill-rule="evenodd" clip-rule="evenodd" d="M25 28C25 28.5523 24.5523 29 24 29C23.4477 29 23 28.5523 23 28C23 27.4477 23.4477 27 24 27C24.5523 27 25 27.4477 25 28ZM25.1999 29.6002C24.8656 29.8513 24.4502 30 24 30C23.5498 30 23.1344 29.8513 22.8001 29.6002L22.3944 28.7889C22.2869 28.5737 22.1572 28.3741 22.0091 28.1923C22.0031 28.129 22 28.0649 22 28C22 26.8954 22.8954 26 24 26C25.1046 26 26 26.8954 26 28C26 28.0285 25.9994 28.0568 25.9982 28.085C25.9339 28.1604 25.8775 28.2451 25.8308 28.3384L25.1999 29.6002Z" fill="black"/>
<path d="M24 17.5C24.8284 17.5 25.5 16.8284 25.5 16C25.5 15.1716 24.8284 14.5 24 14.5C23.1716 14.5 22.5 15.1716 22.5 16C22.5 16.8284 23.1716 17.5 24 17.5Z" stroke="black"/>
</g>
</g>
<defs>
<clipPath id="clip0_341_8057">
<rect width="20" height="20" fill="white" transform="translate(14 14)"/>
</clipPath>
<clipPath id="clip1_341_8057">
<rect width="20" height="20" fill="white" transform="translate(14 14)"/>
</clipPath>
</defs>
</svg>
