<svg width="48" height="48" viewBox="0 0 48 48" fill="none" xmlns="http://www.w3.org/2000/svg">
<rect width="48" height="48" rx="24" fill="#C9A55A"/>
<g clip-path="url(#clip0_341_8028)">
<g clip-path="url(#clip1_341_8028)">
<path d="M32.9766 22.7266C32.9766 23.5818 32.749 23.9045 32.5068 24.0539C32.2094 24.2374 31.7066 24.2872 30.897 24.1952C30.368 24.135 29.7808 24.0257 29.1211 23.9028C28.7882 23.8408 28.4367 23.7754 28.065 23.7111C26.9775 23.523 25.7612 23.3544 24.4766 23.3544C23.1919 23.3544 21.9756 23.523 20.8881 23.7111C20.5164 23.7754 20.1649 23.8408 19.832 23.9028C19.1723 24.0257 18.5851 24.135 18.0561 24.1952C17.2465 24.2872 16.7438 24.2374 16.4463 24.0539C16.2041 23.9045 15.9766 23.5818 15.9766 22.7266C15.9766 21.0502 16.8792 19.4948 18.4131 18.3415C19.9472 17.1881 22.0893 16.46 24.4766 16.46C26.8638 16.46 29.0059 17.1881 30.54 18.3415C32.074 19.4948 32.9766 21.0502 32.9766 22.7266Z" stroke="black"/>
<path d="M17.9766 24.2527L18.2418 28.3924C18.3801 30.5519 19.9574 32.3465 22.0812 32.7609L22.6473 32.8714C23.1883 32.9769 23.6868 33.2383 24.0814 33.6232C24.3012 33.8377 24.6519 33.8377 24.8718 33.6232C25.2663 33.2383 25.7648 32.9769 26.3059 32.8714L26.8719 32.7609C28.9958 32.3465 30.573 30.5519 30.7114 28.3924L30.9766 24.2527" stroke="black"/>
<path d="M23.4766 16.4478V15.0088C23.4766 14.4565 23.9243 14.0088 24.4766 14.0088C25.0288 14.0088 25.4766 14.4565 25.4766 15.0088V16.4478" stroke="black"/>
</g>
</g>
<defs>
<clipPath id="clip0_341_8028">
<rect width="19" height="22" fill="white" transform="translate(14.5 13)"/>
</clipPath>
<clipPath id="clip1_341_8028">
<rect width="19" height="22" fill="white" transform="translate(14.5 13)"/>
</clipPath>
</defs>
</svg>
