<svg width="48" height="48" viewBox="0 0 48 48" fill="none" xmlns="http://www.w3.org/2000/svg">
<rect width="48" height="48" rx="24" fill="#C9A55A"/>
<g clip-path="url(#clip0_341_8071)">
<path d="M25.7288 29.2891L26.2067 30.1169C26.5036 30.6312 26.442 31.2772 26.0532 31.7261L25.9341 31.8636C25.6166 32.2302 25.5663 32.7576 25.8087 33.1776C26.123 33.7218 26.8189 33.9083 27.3632 33.5941L27.5606 33.4801C27.845 33.3159 28.0607 33.0548 28.1682 32.7445L28.196 32.6644C28.2816 32.4174 28.3051 32.1531 28.2644 31.8949L28.192 31.4346C28.1822 31.3721 28.2546 31.3303 28.3038 31.3701L28.6662 31.663C28.8695 31.8272 29.1101 31.939 29.3668 31.9884L29.4501 32.0044C29.7726 32.0664 30.1066 32.0102 30.391 31.846L30.5884 31.732C31.1326 31.4178 31.3191 30.7218 31.0049 30.1776C30.7624 29.7576 30.2805 29.5375 29.8043 29.6291L29.6256 29.6636C29.0424 29.7758 28.4522 29.5062 28.1553 28.9919L27.6773 28.1641" stroke="black"/>
<path d="M27.4776 28.2998L25.9888 29.1931C25.6802 29.3783 25.2879 29.3459 25.0138 29.1126L24.0844 28.3216C23.4257 27.761 22.6868 27.3022 21.8923 26.9604C20.1769 26.2225 18.7457 24.9501 17.812 23.3329L16.9462 21.8333C15.6738 19.6294 16.4289 16.8112 18.6328 15.5388L19.312 15.1467C21.5159 13.8742 24.3341 14.6294 25.6065 16.8333L26.4703 18.3294C27.4053 19.9489 27.7921 21.8271 27.5732 23.6843C27.4723 24.5406 27.4995 25.4073 27.6541 26.2556L27.869 27.4353C27.9312 27.7768 27.7753 28.1212 27.4776 28.2998Z" fill="#BACDFF" fill-opacity="0.5" stroke="black"/>
</g>
<defs>
<clipPath id="clip0_341_8071">
<rect width="20" height="24" fill="white" transform="translate(14 12)"/>
</clipPath>
</defs>
</svg>
