<svg width="48" height="48" viewBox="0 0 48 48" fill="none" xmlns="http://www.w3.org/2000/svg">
<rect width="48" height="48" rx="24" fill="#C9A55A"/>
<g clip-path="url(#clip0_341_8004)">
<g clip-path="url(#clip1_341_8004)">
<path d="M23.3583 26.5629L24.5101 26.0081C24.6822 25.9252 24.8401 25.8154 24.9777 25.6828C25.6566 25.0289 25.7159 23.9619 25.1137 23.2368L24.8739 22.9481C24.0555 21.9626 22.5722 21.8802 21.6496 22.7689L21.2406 23.1629C19.6439 24.701 19.4908 27.2055 20.8881 28.9267L21.7293 29.9629M21.7293 29.9629L22.7609 30.4356C24.8882 31.4103 27.368 31.2173 29.319 29.9252C33.2632 27.3129 33.3802 21.5638 29.5455 18.7933L29.0053 18.4029L28.4855 18.09C25.4133 16.2403 21.5085 16.5303 18.7433 18.8136C15.6706 21.3507 14.7871 25.6891 16.6228 29.2259L16.953 29.8622C16.9851 29.9241 17.0491 29.9629 17.1188 29.9629H21.7293Z" stroke="black"/>
</g>
</g>
<defs>
<clipPath id="clip0_341_8004">
<rect width="19" height="16" fill="white" transform="translate(14.5 16)"/>
</clipPath>
<clipPath id="clip1_341_8004">
<rect width="19" height="16" fill="white" transform="translate(14.5 16)"/>
</clipPath>
</defs>
</svg>
