<svg width="48" height="48" viewBox="0 0 48 48" fill="none" xmlns="http://www.w3.org/2000/svg">
<rect width="48" height="48" rx="24" fill="#C9A55A"/>
<g clip-path="url(#clip0_341_8039)">
<g clip-path="url(#clip1_341_8039)">
<path d="M23.4766 16.0118C23.4766 15.3854 23.7822 14.7134 24.4766 14.1379C25.171 14.7134 25.4766 15.3853 25.4766 16.0118C25.4765 16.6383 25.1709 17.3103 24.4765 17.8857C23.7821 17.3103 23.4765 16.6383 23.4766 16.0118Z" stroke="black"/>
<path d="M20.7703 19.3994C20.2863 18.9835 19.9952 18.3568 20.0445 17.5667C20.9641 17.5243 21.6935 17.7744 22.1776 18.1904C22.6616 18.6063 22.9527 19.233 22.9034 20.0231C21.9838 20.0655 21.2544 19.8154 20.7703 19.3994Z" stroke="black"/>
<path d="M28.1775 19.3994C28.6616 18.9835 28.9527 18.3568 28.9034 17.5667C27.9838 17.5243 27.2544 17.7744 26.7703 18.1904C26.2863 18.6063 25.9952 19.233 26.0445 20.0231C26.9641 20.0655 27.6934 19.8154 28.1775 19.3994Z" stroke="black"/>
<path d="M20.7703 22.833C20.2863 22.4171 19.9952 21.7904 20.0445 21.0003C20.9641 20.9579 21.6935 21.208 22.1776 21.624C22.6616 22.0399 22.9527 22.6666 22.9034 23.4567C21.9838 23.4991 21.2544 23.249 20.7703 22.833Z" stroke="black"/>
<path d="M28.1775 22.833C28.6616 22.4171 28.9527 21.7904 28.9034 21.0003C27.9838 20.9579 27.2544 21.208 26.7703 21.624C26.2863 22.0399 25.9952 22.6666 26.0445 23.4567C26.9641 23.4991 27.6934 23.249 28.1775 22.833Z" stroke="black"/>
<path d="M20.7703 26.333C20.2863 25.9171 19.9952 25.2904 20.0445 24.5002C20.9641 24.4579 21.6935 24.708 22.1776 25.1239C22.6616 25.5399 22.9527 26.1666 22.9034 26.9567C21.9838 26.9991 21.2544 26.749 20.7703 26.333Z" stroke="black"/>
<path d="M28.1775 26.333C28.6616 25.9171 28.9527 25.2904 28.9034 24.5002C27.9838 24.4579 27.2544 24.708 26.7703 25.1239C26.2863 25.5399 25.9952 26.1666 26.0445 26.9567C26.9641 26.9991 27.6934 26.749 28.1775 26.333Z" stroke="black"/>
<path d="M20.7703 29.833C20.2863 29.4171 19.9952 28.7904 20.0445 28.0002C20.9641 27.9579 21.6935 28.208 22.1776 28.6239C22.6616 29.0399 22.9527 29.6666 22.9034 30.4567C21.9838 30.4991 21.2544 30.249 20.7703 29.833Z" stroke="black"/>
<path d="M28.1775 29.833C28.6616 29.4171 28.9527 28.7904 28.9034 28.0002C27.9838 27.9579 27.2544 28.208 26.7703 28.6239C26.2863 29.0399 25.9952 29.6666 26.0445 30.4567C26.9641 30.4991 27.6934 30.249 28.1775 29.833Z" stroke="black"/>
<path d="M24.4766 17.7974V33.5118" stroke="black"/>
</g>
</g>
<defs>
<clipPath id="clip0_341_8039">
<rect width="13" height="21" fill="white" transform="translate(17.5 13.5)"/>
</clipPath>
<clipPath id="clip1_341_8039">
<rect width="13" height="21" fill="white" transform="translate(17.5 13.5)"/>
</clipPath>
</defs>
</svg>
