<svg width="48" height="48" viewBox="0 0 48 48" fill="none" xmlns="http://www.w3.org/2000/svg">
<rect width="48" height="48" rx="24" fill="#C9A55A"/>
<g clip-path="url(#clip0_341_8013)">
<g clip-path="url(#clip1_341_8013)">
<path d="M27.2486 20.6732C27.2486 22.2468 25.9985 23.5068 24.4759 23.5068C22.9532 23.5068 21.7031 22.2468 21.7031 20.6732C21.7031 19.0995 22.9532 17.8396 24.4759 17.8396C25.9985 17.8396 27.2486 19.0995 27.2486 20.6732Z" stroke="black"/>
<path d="M27.3814 30.6725C27.3814 32.2461 26.1314 33.506 24.6087 33.506C23.086 33.506 21.8359 32.2461 21.8359 30.6725C21.8359 29.0988 23.086 27.8389 24.6087 27.8389C26.1314 27.8389 27.3814 29.0988 27.3814 30.6725Z" stroke="black"/>
<path d="M21.522 20.6732C21.522 22.2468 20.272 23.5068 18.7493 23.5068C17.2266 23.5068 15.9766 22.2468 15.9766 20.6732C15.9766 19.0995 17.2266 17.8396 18.7493 17.8396C20.272 17.8396 21.522 19.0995 21.522 20.6732Z" stroke="black"/>
<path d="M32.9751 20.6732C32.9751 22.2468 31.7251 23.5068 30.2024 23.5068C28.6797 23.5068 27.4297 22.2468 27.4297 20.6732C27.4297 19.0995 28.6797 17.8396 30.2024 17.8396C31.7251 17.8396 32.9751 19.0995 32.9751 20.6732Z" stroke="black"/>
<path d="M30.2486 25.6725C30.2486 27.2461 28.9986 28.506 27.4759 28.506C25.9532 28.506 24.7031 27.2461 24.7031 25.6725C24.7031 24.0988 25.9532 22.8389 27.4759 22.8389C28.9986 22.8389 30.2486 24.0988 30.2486 25.6725Z" stroke="black"/>
<path d="M24.522 25.6725C24.522 27.2461 23.272 28.506 21.7493 28.506C20.2266 28.506 18.9766 27.2461 18.9766 25.6725C18.9766 24.0988 20.2266 22.8389 21.7493 22.8389C23.272 22.8389 24.522 24.0988 24.522 25.6725Z" stroke="black"/>
<path d="M24.4702 17.7561V16.0893M24.4702 16.0893V14.0059M24.4702 16.0893L22.0156 14.8393" stroke="black"/>
</g>
</g>
<defs>
<clipPath id="clip0_341_8013">
<rect width="19" height="20" fill="white" transform="translate(14.5 14)"/>
</clipPath>
<clipPath id="clip1_341_8013">
<rect width="19" height="20" fill="white" transform="translate(14.5 14)"/>
</clipPath>
</defs>
</svg>
