<svg width="48" height="48" viewBox="0 0 48 48" fill="none" xmlns="http://www.w3.org/2000/svg">
<rect width="48" height="48" rx="24" fill="#C9A55A"/>
<g clip-path="url(#clip0_341_8081)">
<g clip-path="url(#clip1_341_8081)">
<path d="M31.8073 24.4636L30.0758 21.3155C29.1229 19.5828 26.7537 19.2905 25.4082 20.7395L25.0938 21.0781C24.3439 21.8857 23.131 22.0578 22.1861 21.4908C21.2007 20.8996 19.9314 21.1146 19.1957 21.9974L17.1406 24.4636" stroke="black"/>
<path fill-rule="evenodd" clip-rule="evenodd" d="M17.7364 23.7449C16.939 23.9522 16.4766 24.1988 16.4766 24.4634C16.4766 25.1998 20.0583 25.7967 24.4766 25.7967C28.8948 25.7967 32.4766 25.1998 32.4766 24.4634C32.4766 24.1988 32.0142 23.9522 31.2167 23.7449C30.5617 24.2949 29.8597 24.5013 28.9435 24.5632C27.694 24.709 26.1536 24.7967 24.4766 24.7967C22.7995 24.7967 21.2591 24.709 20.0096 24.5632C19.0934 24.5013 18.3914 24.2949 17.7364 23.7449Z" fill="black"/>
<path fill-rule="evenodd" clip-rule="evenodd" d="M30.7585 23.4099C30.7873 23.1282 30.8021 22.8139 30.8021 22.4635C30.8021 22.4378 30.7984 22.4122 30.7911 22.3868C33.0358 22.9331 34.4688 23.9012 34.4688 25.4635C34.4688 28.2249 29.9916 32.4635 24.4688 32.4635C18.9459 32.4635 14.4688 28.2249 14.4688 25.4635C14.4688 23.7361 16.2207 22.735 18.8847 22.2275C18.8302 22.3041 18.8021 22.383 18.8021 22.4635C18.8021 22.7491 18.8069 23.0145 18.8163 23.2607C18.4154 23.3442 18.0419 23.4399 17.6988 23.5482C15.9757 24.0924 15.4688 24.7864 15.4688 25.4635C15.4688 25.8972 15.6517 26.4919 16.0953 27.1808C16.5317 27.8582 17.1822 28.5658 18.0109 29.2091C19.6713 30.4981 21.9604 31.4635 24.4688 31.4635C26.9771 31.4635 29.2662 30.4981 30.9266 29.2091C31.7553 28.5658 32.4059 27.8582 32.8422 27.1808C33.2859 26.4919 33.4688 25.8972 33.4688 25.4635C33.4688 24.7864 32.9618 24.0924 31.2387 23.5482C31.0847 23.4996 30.9245 23.4535 30.7585 23.4099Z" fill="black"/>
</g>
</g>
<defs>
<clipPath id="clip0_341_8081">
<rect width="21" height="18" fill="white" transform="translate(13.5 15)"/>
</clipPath>
<clipPath id="clip1_341_8081">
<rect width="21" height="18" fill="white" transform="translate(13.5 15)"/>
</clipPath>
</defs>
</svg>
