<svg width="30" height="31" viewBox="0 0 30 31" fill="none" xmlns="http://www.w3.org/2000/svg">
<g clip-path="url(#clip0_358_3176)">
<g clip-path="url(#clip1_358_3176)">
<path d="M15.0001 0.939453C15.308 0.93949 15.7237 1.16239 16.1991 1.86623C16.6616 2.55094 17.0994 3.5779 17.476 4.89596C18.2271 7.52497 18.6993 11.189 18.6994 15.2585C18.6994 19.3281 18.2271 22.9919 17.476 25.621C17.0994 26.9391 16.6616 27.966 16.1991 28.6508C15.7237 29.3546 15.308 29.5775 15.0001 29.5775C14.692 29.5775 14.2765 29.3547 13.801 28.6508C13.3386 27.966 12.9007 26.9391 12.5241 25.621C11.773 22.9919 11.3008 19.3281 11.3008 15.2585C11.3008 11.189 11.773 7.52497 12.5241 4.89596C12.9007 3.57788 13.3385 2.55094 13.801 1.86623C14.2765 1.16234 14.692 0.939453 15.0001 0.939453Z" stroke="#101010" stroke-width="1.09756"/>
<path d="M27.4034 8.09895C27.5574 8.36573 27.5721 8.83703 27.2004 9.60071C26.8386 10.3436 26.1681 11.2362 25.2149 12.2214C23.3137 14.1865 20.3767 16.4273 16.8524 18.4621C13.3281 20.4969 9.91897 21.92 7.26657 22.5839C5.93682 22.9168 4.82853 23.0511 4.00429 22.9929C3.15702 22.9331 2.7562 22.6847 2.60216 22.418C2.44815 22.1512 2.43341 21.6799 2.80526 20.9162C3.16703 20.1733 3.83743 19.2807 4.79063 18.2955C6.69185 16.3304 9.62884 14.0896 13.1532 12.0548C16.6775 10.0201 20.0867 8.59695 22.7391 7.93293C24.0688 7.60008 25.1771 7.46573 26.0013 7.5239C26.8486 7.58376 27.2495 7.83217 27.4034 8.09895Z" stroke="#101010" stroke-width="1.09756"/>
<path d="M27.4034 22.4174C27.2494 22.6842 26.8485 22.9326 26.0013 22.9924C25.1771 23.0506 24.0688 22.9163 22.739 22.5834C20.0867 21.9194 16.6774 20.4963 13.1532 18.4616C9.62882 16.4268 6.69183 14.1859 4.79061 12.2209C3.83743 11.2357 3.16701 10.3431 2.80524 9.60015C2.43342 8.83647 2.44816 8.36518 2.60214 8.0984C2.75614 7.83162 3.15694 7.5832 4.00427 7.52342C4.82852 7.46525 5.93676 7.59952 7.26655 7.93244C9.91894 8.5964 13.328 10.0195 16.8524 12.0542C20.3767 14.089 23.3137 16.33 25.2149 18.295C26.1681 19.2801 26.8386 20.1727 27.2003 20.9156C27.5722 21.6794 27.5574 22.1507 27.4034 22.4174Z" stroke="#101010" stroke-width="1.09756"/>
<path d="M14.9981 16.409C15.6334 16.409 16.1485 15.8939 16.1485 15.2586C16.1485 14.6232 15.6334 14.1082 14.9981 14.1082C14.3627 14.1082 13.8477 14.6232 13.8477 15.2586C13.8477 15.8939 14.3627 16.409 14.9981 16.409Z" fill="#101010" stroke="#101010" stroke-width="1.09756"/>
<path d="M4.80666 13.4356C5.44202 13.4356 5.95707 12.9205 5.95707 12.2852C5.95707 11.6498 5.44202 11.1348 4.80666 11.1348C4.17131 11.1348 3.65625 11.6498 3.65625 12.2852C3.65625 12.9205 4.17131 13.4356 4.80666 13.4356Z" fill="#101010" stroke="#101010" stroke-width="1.09756"/>
<path d="M17.5489 27.0286C18.1842 27.0286 18.6993 26.5136 18.6993 25.8782C18.6993 25.2428 18.1842 24.7278 17.5489 24.7278C16.9135 24.7278 16.3984 25.2428 16.3984 25.8782C16.3984 26.5136 16.9135 27.0286 17.5489 27.0286Z" fill="#101010" stroke="#101010" stroke-width="1.09756"/>
<path d="M21.7949 9.18754C22.4303 9.18754 22.9454 8.67249 22.9454 8.03713C22.9454 7.40178 22.4303 6.88672 21.7949 6.88672C21.1596 6.88672 20.6445 7.40178 20.6445 8.03713C20.6445 8.67249 21.1596 9.18754 21.7949 9.18754Z" fill="#101010" stroke="#101010" stroke-width="1.09756"/>
</g>
</g>
<defs>
<clipPath id="clip0_358_3176">
<rect width="30" height="30.72" fill="white"/>
</clipPath>
<clipPath id="clip1_358_3176">
<rect width="30" height="30.7317" fill="white" transform="translate(0 -0.00585938)"/>
</clipPath>
</defs>
</svg>
