<svg width="30" height="29" viewBox="0 0 30 29" fill="none" xmlns="http://www.w3.org/2000/svg">
<g clip-path="url(#clip0_358_3165)">
<g clip-path="url(#clip1_358_3165)">
<path d="M15.4048 3.79856L3.93787 15.2655C2.23766 16.9657 2.23766 19.7223 3.93787 21.4225C5.63807 23.1227 8.39465 23.1227 10.0949 21.4225L21.5618 9.95555C23.262 8.25534 23.262 5.49876 21.5618 3.79856C19.8616 2.09835 17.105 2.09835 15.4048 3.79856Z" stroke="black" stroke-width="1.02273"/>
<path d="M9.41406 9.36646L15.9007 15.8531" stroke="black" stroke-width="1.02273"/>
<path d="M18.543 23.3497H28.7702" stroke="black" stroke-width="1.02273"/>
<path d="M23.9979 28.1226C26.7279 28.1226 28.9411 25.9094 28.9411 23.1794C28.9411 20.4493 26.7279 18.2362 23.9979 18.2362C21.2678 18.2362 19.0547 20.4493 19.0547 23.1794C19.0547 25.9094 21.2678 28.1226 23.9979 28.1226Z" stroke="black" stroke-width="1.02273"/>
</g>
</g>
<defs>
<clipPath id="clip0_358_3165">
<rect width="30" height="28.63" fill="white"/>
</clipPath>
<clipPath id="clip1_358_3165">
<rect width="30" height="28.6364" fill="white" transform="translate(0 -0.00317383)"/>
</clipPath>
</defs>
</svg>
