<svg width="30" height="35" viewBox="0 0 30 35" fill="none" xmlns="http://www.w3.org/2000/svg">
<g clip-path="url(#clip0_358_3149)">
<path d="M26.451 1.12708H3.59065C2.19439 1.12708 1.0625 2.25897 1.0625 3.65523V30.6823C1.0625 32.0785 2.19439 33.2104 3.59065 33.2104H26.451C27.8473 33.2104 28.9792 32.0785 28.9792 30.6823V3.65523C28.9792 2.25897 27.8473 1.12708 26.451 1.12708Z" stroke="black" stroke-width="1.25"/>
<path d="M8.77344 28.0021H25.4401" stroke="black" stroke-width="1.25" stroke-linecap="round"/>
<path d="M8.77344 23.0021H17.9401" stroke="black" stroke-width="1.25" stroke-linecap="round"/>
<path d="M8.77344 17.1687H23.7734" stroke="black" stroke-width="1.25" stroke-linecap="round"/>
<path d="M8.77344 11.3353H21.2734" stroke="black" stroke-width="1.25" stroke-linecap="round"/>
<path d="M4.18822 27.5853C3.95809 27.8154 3.95809 28.1885 4.18822 28.4186C4.41834 28.6488 4.79143 28.6488 5.02155 28.4186C5.25167 28.1885 5.25167 27.8154 5.02155 27.5853C4.79143 27.3552 4.41834 27.3552 4.18822 27.5853Z" fill="black"/>
<path d="M4.18822 22.5853C3.95809 22.8154 3.95809 23.1885 4.18822 23.4186C4.41834 23.6488 4.79143 23.6488 5.02155 23.4186C5.25167 23.1885 5.25167 22.8154 5.02155 22.5853C4.79143 22.3552 4.41834 22.3552 4.18822 22.5853Z" fill="black"/>
<path d="M4.18822 16.752C3.95809 16.9822 3.95809 17.3553 4.18822 17.5854C4.41834 17.8155 4.79143 17.8155 5.02155 17.5854C5.25167 17.3553 5.25167 16.9822 5.02155 16.752C4.79143 16.5219 4.41834 16.5219 4.18822 16.752Z" fill="black"/>
<path d="M4.18822 10.9188C3.95809 11.1489 3.95809 11.522 4.18822 11.7521C4.41834 11.9823 4.79143 11.9823 5.02155 11.7521C5.25167 11.522 5.25167 11.1489 5.02155 10.9188C4.79143 10.6887 4.41834 10.6887 4.18822 10.9188Z" fill="black"/>
</g>
<defs>
<clipPath id="clip0_358_3149">
<rect width="30" height="34.16" fill="white"/>
</clipPath>
</defs>
</svg>
