<svg width="48" height="48" viewBox="0 0 48 48" fill="none" xmlns="http://www.w3.org/2000/svg">
<rect width="48" height="48" rx="24" fill="#C9A55A"/>
<g clip-path="url(#clip0_341_9417)">
<g clip-path="url(#clip1_341_9417)">
<path d="M15.9727 18.4555C15.9727 16.9562 17.1881 15.7407 18.6874 15.7407H21.8909C22.178 15.7407 22.4021 15.5071 22.4021 15.2295C22.4021 14.2785 23.1739 13.5 24.1155 13.5C25.0571 13.5 25.8289 14.2785 25.8289 15.2295C25.8289 15.5071 26.0531 15.7407 26.3401 15.7407H29.5436C31.0429 15.7407 32.2584 16.9562 32.2584 18.4555V25.7125C32.2584 26.952 31.7471 28.1366 30.8453 28.9868L28.2706 31.4141C28.0577 31.6149 27.9369 31.8946 27.9369 32.1872C27.9369 33.4645 26.9015 34.5 25.6242 34.5H24.1155H22.6069C21.3295 34.5 20.2941 33.4645 20.2941 32.1872C20.2941 31.8946 20.1734 31.6149 19.9604 31.4141L17.3858 28.9868C16.4839 28.1366 15.9727 26.952 15.9727 25.7125V18.4555Z" stroke="#363636"/>
<path d="M22.6857 31.7809V31.5625L22.5256 31.4141L18.0171 27.2358C17.6874 26.9302 17.5 26.5011 17.5 26.0516V22.4158C17.5 21.0023 19.2552 20.3475 20.181 21.4157L21.5981 23.0508C22.9275 24.5848 25.3077 24.5848 26.6372 23.0508C28.0523 21.418 30.7352 22.4188 30.7352 24.5795V26.0516C30.7352 26.5011 30.548 26.9302 30.2183 27.2358L25.7098 31.4141L25.5496 31.5625V31.7809C25.5496 32.403 25.0453 32.9073 24.4232 32.9073H24.1176H23.8121C23.19 32.9073 22.6857 32.403 22.6857 31.7809Z" stroke="#363636"/>
<mask id="mask0_341_9417" style="mask-type:luminance" maskUnits="userSpaceOnUse" x="23" y="15" width="3" height="2">
<path d="M24.1184 16.9939C24.6799 16.9939 25.1352 16.5482 25.1352 15.9984C25.1352 15.4486 24.6799 15.0029 24.1184 15.0029C23.5568 15.0029 23.1016 15.4486 23.1016 15.9984C23.1016 16.5482 23.5568 16.9939 24.1184 16.9939Z" fill="white"/>
</mask>
<g mask="url(#mask0_341_9417)">
<path d="M24.1352 15.9984C24.1352 15.9979 24.1352 15.9965 24.1357 15.9944C24.1361 15.9925 24.1367 15.9907 24.1373 15.9893C24.1384 15.9866 24.1391 15.9865 24.1378 15.9877C24.1365 15.989 24.1343 15.9906 24.1316 15.9917C24.1294 15.9926 24.1255 15.9939 24.1184 15.9939V17.9939C25.2122 17.9939 26.1352 17.1204 26.1352 15.9984H24.1352ZM24.1184 15.9939C24.1112 15.9939 24.1073 15.9926 24.1052 15.9917C24.1024 15.9906 24.1003 15.989 24.099 15.9877C24.0976 15.9865 24.0983 15.9866 24.0995 15.9893C24.1001 15.9907 24.1007 15.9925 24.1011 15.9944C24.1015 15.9965 24.1016 15.9979 24.1016 15.9984H22.1016C22.1016 17.1204 23.0246 17.9939 24.1184 17.9939V15.9939ZM24.1016 15.9984C24.1016 15.9989 24.1015 16.0003 24.1011 16.0024C24.1007 16.0043 24.1001 16.0061 24.0995 16.0075C24.0983 16.0102 24.0976 16.0103 24.099 16.0091C24.1003 16.0078 24.1024 16.0062 24.1052 16.0051C24.1073 16.0042 24.1112 16.0029 24.1184 16.0029V14.0029C23.0246 14.0029 22.1016 14.8764 22.1016 15.9984H24.1016ZM24.1184 16.0029C24.1255 16.0029 24.1294 16.0042 24.1316 16.0051C24.1343 16.0062 24.1365 16.0078 24.1378 16.0091C24.1391 16.0103 24.1384 16.0102 24.1373 16.0075C24.1367 16.0061 24.1361 16.0043 24.1357 16.0024C24.1352 16.0003 24.1352 15.9989 24.1352 15.9984H26.1352C26.1352 14.8764 25.2122 14.0029 24.1184 14.0029V16.0029Z" fill="#363636"/>
</g>
</g>
</g>
<defs>
<clipPath id="clip0_341_9417">
<rect width="19" height="22" fill="white" transform="translate(14.5 13)"/>
</clipPath>
<clipPath id="clip1_341_9417">
<rect width="19" height="22" fill="white" transform="translate(14.5 13)"/>
</clipPath>
</defs>
</svg>
