<svg width="48" height="48" viewBox="0 0 48 48" fill="none" xmlns="http://www.w3.org/2000/svg">
<rect width="48" height="48" rx="24" fill="#C9A55A"/>
<g clip-path="url(#clip0_341_9468)">
<g clip-path="url(#clip1_341_9468)">
<path d="M17.3798 23.7596C17.3798 24.715 16.7162 25.3223 15.9262 25.3223C15.1363 25.3223 14.4727 24.715 14.4727 23.7596C14.4727 23.2994 14.6964 22.7832 15.0762 22.1816C15.2621 21.8871 15.4734 21.5898 15.6942 21.282C15.7107 21.259 15.7272 21.236 15.7438 21.2129C15.8042 21.1287 15.8653 21.0436 15.9262 20.958C15.9872 21.0436 16.0482 21.1287 16.1087 21.2129C16.1252 21.236 16.1418 21.259 16.1583 21.282C16.379 21.5898 16.5904 21.8871 16.7763 22.1816C17.1561 22.7832 17.3798 23.2994 17.3798 23.7596Z" stroke="#363636"/>
<path d="M25.9111 23.7596C25.9111 24.715 25.2474 25.3223 24.4575 25.3223C23.6675 25.3223 23.0039 24.715 23.0039 23.7596C23.0039 23.2994 23.2276 22.7832 23.6074 22.1816C23.7934 21.8871 24.0047 21.5898 24.2255 21.282C24.2419 21.259 24.2585 21.236 24.2751 21.2129C24.3355 21.1287 24.3965 21.0436 24.4575 20.958C24.5184 21.0436 24.5795 21.1287 24.6399 21.2129C24.6565 21.236 24.673 21.259 24.6895 21.282C24.9103 21.5898 25.1216 21.8871 25.3075 22.1816C25.6873 22.7832 25.9111 23.2994 25.9111 23.7596Z" stroke="#363636"/>
<path d="M33.4727 12.7H15.4688C12.9835 12.7 10.9688 14.7147 10.9688 17.2V30.8261C10.9688 33.3113 12.9835 35.3261 15.4688 35.3261H33.4727C35.9579 35.3261 37.9727 33.3113 37.9727 30.8261V17.2C37.9727 14.7147 35.9579 12.7 33.4727 12.7Z" stroke="#363636"/>
<path d="M11.1211 17.3083H37.8225" stroke="#363636" stroke-linecap="round"/>
<mask id="mask0_341_9468" style="mask-type:luminance" maskUnits="userSpaceOnUse" x="14" y="28" width="3" height="3">
<path d="M15.9182 30.8727C16.4577 30.8727 16.895 30.4438 16.895 29.9148C16.895 29.3859 16.4577 28.957 15.9182 28.957C15.3787 28.957 14.9414 29.3859 14.9414 29.9148C14.9414 30.4438 15.3787 30.8727 15.9182 30.8727Z" fill="white"/>
</mask>
<g mask="url(#mask0_341_9468)">
<path d="M15.895 29.9148C15.895 29.908 15.8966 29.8994 15.9 29.8916C15.9031 29.8845 15.9065 29.8803 15.9088 29.8781C15.911 29.8759 15.9132 29.8746 15.9153 29.8737C15.9181 29.8725 15.9196 29.8727 15.9182 29.8727V31.8727C16.9914 31.8727 17.895 31.0145 17.895 29.9148H15.895ZM15.9182 29.8727C15.9168 29.8727 15.9183 29.8725 15.9211 29.8737C15.9232 29.8746 15.9254 29.8759 15.9276 29.8781C15.9299 29.8803 15.9333 29.8845 15.9364 29.8916C15.9398 29.8994 15.9414 29.908 15.9414 29.9148H13.9414C13.9414 31.0145 14.845 31.8727 15.9182 31.8727V29.8727ZM15.9414 29.9148C15.9414 29.9217 15.9398 29.9303 15.9364 29.9381C15.9333 29.9452 15.9299 29.9494 15.9276 29.9516C15.9254 29.9538 15.9232 29.9551 15.9211 29.956C15.9183 29.9572 15.9168 29.957 15.9182 29.957V27.957C14.845 27.957 13.9414 28.8152 13.9414 29.9148H15.9414ZM15.9182 29.957C15.9196 29.957 15.9181 29.9572 15.9153 29.956C15.9132 29.9551 15.911 29.9538 15.9088 29.9516C15.9065 29.9494 15.9031 29.9452 15.9 29.9381C15.8966 29.9303 15.895 29.9217 15.895 29.9148H17.895C17.895 28.8152 16.9914 27.957 15.9182 27.957V29.957Z" fill="#363636"/>
</g>
<mask id="mask1_341_9468" style="mask-type:luminance" maskUnits="userSpaceOnUse" x="23" y="28" width="3" height="3">
<path d="M24.469 30.8727C25.0084 30.8727 25.4458 30.4438 25.4458 29.9148C25.4458 29.3859 25.0084 28.957 24.469 28.957C23.9295 28.957 23.4922 29.3859 23.4922 29.9148C23.4922 30.4438 23.9295 30.8727 24.469 30.8727Z" fill="white"/>
</mask>
<g mask="url(#mask1_341_9468)">
<path d="M24.4458 29.9148C24.4458 29.908 24.4474 29.8994 24.4508 29.8916C24.4538 29.8845 24.4573 29.8803 24.4595 29.8781C24.4618 29.8759 24.4639 29.8746 24.4661 29.8737C24.4688 29.8725 24.4704 29.8727 24.469 29.8727V31.8727C25.5421 31.8727 26.4458 31.0145 26.4458 29.9148H24.4458ZM24.469 29.8727C24.4675 29.8727 24.4691 29.8725 24.4719 29.8737C24.474 29.8746 24.4762 29.8759 24.4784 29.8781C24.4807 29.8803 24.4841 29.8845 24.4872 29.8916C24.4905 29.8994 24.4922 29.908 24.4922 29.9148H22.4922C22.4922 31.0145 23.3958 31.8727 24.469 31.8727V29.8727ZM24.4922 29.9148C24.4922 29.9217 24.4905 29.9303 24.4872 29.9381C24.4841 29.9452 24.4807 29.9494 24.4784 29.9516C24.4762 29.9538 24.474 29.9551 24.4719 29.956C24.4691 29.9572 24.4675 29.957 24.469 29.957V27.957C23.3958 27.957 22.4922 28.8152 22.4922 29.9148H24.4922ZM24.469 29.957C24.4704 29.957 24.4688 29.9572 24.4661 29.956C24.4639 29.9551 24.4618 29.9538 24.4595 29.9516C24.4573 29.9494 24.4538 29.9452 24.4508 29.9381C24.4474 29.9303 24.4458 29.9217 24.4458 29.9148H26.4458C26.4458 28.8152 25.5421 27.957 24.469 27.957V29.957Z" fill="#363636"/>
</g>
<mask id="mask2_341_9468" style="mask-type:luminance" maskUnits="userSpaceOnUse" x="31" y="22" width="3" height="3">
<path d="M32.9534 24.1786C33.4928 24.1786 33.9301 23.7497 33.9301 23.2208C33.9301 22.6918 33.4928 22.2629 32.9534 22.2629C32.4139 22.2629 31.9766 22.6918 31.9766 23.2208C31.9766 23.7497 32.4139 24.1786 32.9534 24.1786Z" fill="white"/>
</mask>
<g mask="url(#mask2_341_9468)">
<path d="M32.9301 23.2208C32.9301 23.2139 32.9318 23.2053 32.9352 23.1975C32.9382 23.1904 32.9417 23.1862 32.9439 23.184C32.9461 23.1818 32.9483 23.1805 32.9505 23.1796C32.9532 23.1785 32.9548 23.1786 32.9534 23.1786V25.1786C34.0265 25.1786 34.9301 24.3204 34.9301 23.2208H32.9301ZM32.9534 23.1786C32.9519 23.1786 32.9535 23.1785 32.9562 23.1796C32.9584 23.1805 32.9606 23.1818 32.9628 23.184C32.965 23.1862 32.9685 23.1904 32.9715 23.1975C32.9749 23.2053 32.9766 23.2139 32.9766 23.2208H30.9766C30.9766 24.3204 31.8802 25.1786 32.9534 25.1786V23.1786ZM32.9766 23.2208C32.9766 23.2276 32.9749 23.2362 32.9715 23.244C32.9685 23.2511 32.965 23.2553 32.9628 23.2575C32.9606 23.2597 32.9584 23.261 32.9562 23.2619C32.9535 23.2631 32.9519 23.2629 32.9534 23.2629V21.2629C31.8802 21.2629 30.9766 22.1211 30.9766 23.2208H32.9766ZM32.9534 23.2629C32.9548 23.2629 32.9532 23.2631 32.9505 23.2619C32.9483 23.261 32.9461 23.2597 32.9439 23.2575C32.9417 23.2553 32.9382 23.2511 32.9352 23.244C32.9318 23.2362 32.9301 23.2276 32.9301 23.2208H34.9301C34.9301 22.1211 34.0265 21.2629 32.9534 21.2629V23.2629Z" fill="#363636"/>
</g>
<mask id="mask3_341_9468" style="mask-type:luminance" maskUnits="userSpaceOnUse" x="31" y="28" width="3" height="3">
<path d="M32.9573 30.8727C33.4967 30.8727 33.9341 30.4438 33.9341 29.9148C33.9341 29.3859 33.4967 28.957 32.9573 28.957C32.4178 28.957 31.9805 29.3859 31.9805 29.9148C31.9805 30.4438 32.4178 30.8727 32.9573 30.8727Z" fill="white"/>
</mask>
<g mask="url(#mask3_341_9468)">
<path d="M32.9341 29.9148C32.9341 29.908 32.9357 29.8994 32.9391 29.8916C32.9421 29.8845 32.9456 29.8803 32.9478 29.8781C32.95 29.8759 32.9522 29.8746 32.9544 29.8737C32.9571 29.8725 32.9587 29.8727 32.9573 29.8727V31.8727C34.0304 31.8727 34.9341 31.0145 34.9341 29.9148H32.9341ZM32.9573 29.8727C32.9558 29.8727 32.9574 29.8725 32.9602 29.8737C32.9623 29.8746 32.9645 29.8759 32.9667 29.8781C32.9689 29.8803 32.9724 29.8845 32.9755 29.8916C32.9788 29.8994 32.9805 29.908 32.9805 29.9148H30.9805C30.9805 31.0145 31.8841 31.8727 32.9573 31.8727V29.8727ZM32.9805 29.9148C32.9805 29.9217 32.9788 29.9303 32.9755 29.9381C32.9724 29.9452 32.9689 29.9494 32.9667 29.9516C32.9645 29.9538 32.9623 29.9551 32.9602 29.956C32.9574 29.9572 32.9558 29.957 32.9573 29.957V27.957C31.8841 27.957 30.9805 28.8152 30.9805 29.9148H32.9805ZM32.9573 29.957C32.9587 29.957 32.9571 29.9572 32.9544 29.956C32.9522 29.9551 32.95 29.9538 32.9478 29.9516C32.9456 29.9494 32.9421 29.9452 32.9391 29.9381C32.9357 29.9303 32.9341 29.9217 32.9341 29.9148H34.9341C34.9341 28.8152 34.0304 27.957 32.9573 27.957V29.957Z" fill="#363636"/>
</g>
</g>
</g>
<defs>
<clipPath id="clip0_341_9468">
<rect width="29" height="24" fill="white" transform="translate(9.5 12)"/>
</clipPath>
<clipPath id="clip1_341_9468">
<rect width="29" height="24" fill="white" transform="translate(9.5 12)"/>
</clipPath>
</defs>
</svg>
