<svg width="48" height="48" viewBox="0 0 48 48" fill="none" xmlns="http://www.w3.org/2000/svg">
<rect width="48" height="48" rx="24" fill="#C9A55A"/>
<g clip-path="url(#clip0_341_10146)">
<g clip-path="url(#clip1_341_10146)">
<path d="M22.9527 18.9227C22.9827 18.9728 23.0082 19.0159 23.0289 19.0511V30.2031C23.0025 30.2363 22.9712 30.2753 22.9353 30.3195C22.8059 30.479 22.6163 30.7067 22.3777 30.977C21.8996 31.5186 21.2295 32.2258 20.4569 32.8957C19.6811 33.5682 18.8205 34.1868 17.9622 34.5686C17.1016 34.9513 16.2973 35.0731 15.5924 34.8417C11.8017 33.5974 11.0722 28.6054 14.3562 26.4495C15.001 26.0262 14.9608 25.0765 14.286 24.7067L13.1324 24.0743C7.29367 20.8741 10.3439 12.027 17.0138 13.088C17.6752 13.1932 18.3892 13.5886 19.1101 14.1801C19.8245 14.7662 20.5062 15.512 21.1018 16.2559C21.6958 16.9979 22.1951 17.7265 22.5461 18.2705C22.7214 18.5421 22.8591 18.7667 22.9527 18.9227ZM24.0289 19.0519C24.0494 19.0172 24.0746 18.975 24.1042 18.9258C24.1977 18.771 24.3354 18.548 24.5107 18.2784C24.8616 17.7383 25.3607 17.015 25.9547 16.2782C26.5501 15.5395 27.2317 14.7988 27.9461 14.2164C28.6668 13.6288 29.3812 13.2352 30.0436 13.1299C36.7134 12.0689 39.7636 20.916 33.9249 24.1162L32.7713 24.7485C32.0965 25.1184 32.0563 26.0681 32.7011 26.4914C35.9851 28.6473 35.2557 33.6393 31.4649 34.8836C30.761 35.1146 29.9574 34.9911 29.0968 34.6046C28.2386 34.2192 27.3779 33.5956 26.6021 32.9178C25.8294 32.2428 25.1592 31.5304 24.6811 30.9849C24.4425 30.7126 24.2529 30.4833 24.1235 30.3227C24.0871 30.2775 24.0555 30.2378 24.0289 30.2041V19.0519Z" stroke="#363636"/>
</g>
</g>
<defs>
<clipPath id="clip0_341_10146">
<rect width="29" height="24" fill="white" transform="translate(9.5 12)"/>
</clipPath>
<clipPath id="clip1_341_10146">
<rect width="29" height="24" fill="white" transform="translate(9.5 12)"/>
</clipPath>
</defs>
</svg>
