<svg width="48" height="48" viewBox="0 0 48 48" fill="none" xmlns="http://www.w3.org/2000/svg">
<rect width="48" height="48" rx="24" fill="#C9A55A"/>
<g clip-path="url(#clip0_341_9370)">
<g clip-path="url(#clip1_341_9370)">
<path d="M24.0767 25.4518C23.2324 25.4518 22.4596 25.4518 18.8915 25.4518C18.7969 25.4518 18.7182 25.5285 18.7182 25.6231V26.1885C18.7182 27.7676 17.4381 29.0476 15.8591 29.0476H15.5638C14.1478 29.0476 13 27.8998 13 26.4839C13 25.8217 13.2562 25.1851 13.715 24.7076L14.0097 24.4009C14.3463 24.0506 14.3463 23.497 14.0097 23.1467L13.715 22.84C13.2562 22.3625 13 21.726 13 21.0638C13 19.6478 14.1478 18.5 15.5638 18.5H15.8591C17.4381 18.5 18.7182 19.7801 18.7182 21.3591V21.9246C18.7182 22.0191 18.7948 22.0958 18.8894 22.0958H24.0767" stroke="#363636" stroke-linecap="round"/>
<path d="M23.9219 25.4518C24.7662 25.4518 25.539 25.4518 29.1071 25.4518C29.2017 25.4518 29.2805 25.5285 29.2805 25.6231V26.1885C29.2805 27.7676 30.5605 29.0476 32.1395 29.0476H32.4349C33.8508 29.0476 34.9986 27.8998 34.9986 26.4839C34.9986 25.8217 34.7424 25.1851 34.2836 24.7076L33.9889 24.4009C33.6523 24.0506 33.6523 23.497 33.9889 23.1467L34.2836 22.84C34.7424 22.3625 34.9986 21.726 34.9986 21.0638C34.9986 19.6478 33.8508 18.5 32.4349 18.5H32.1395C30.5605 18.5 29.2805 19.7801 29.2805 21.3591V21.9246C29.2805 22.0191 29.2038 22.0958 29.1092 22.0958H23.9219" stroke="#363636" stroke-linecap="round"/>
</g>
</g>
<defs>
<clipPath id="clip0_341_9370">
<rect width="24" height="13" fill="white" transform="translate(12 17.5)"/>
</clipPath>
<clipPath id="clip1_341_9370">
<rect width="24" height="13" fill="white" transform="translate(12 17.5)"/>
</clipPath>
</defs>
</svg>
