<svg width="48" height="48" viewBox="0 0 48 48" fill="none" xmlns="http://www.w3.org/2000/svg">
<rect width="48" height="48" rx="24" fill="#C9A55A"/>
<g clip-path="url(#clip0_341_9431)">
<g clip-path="url(#clip1_341_9431)">
<path d="M17.0118 16.8085L17.4518 14L14.9375 17.7915H17.2632L16.8232 20.6L19.3375 16.8085H17.0118Z" stroke="#363636"/>
<path d="M33.5055 18.231C33.5055 19.3767 32.7224 20.0999 31.8055 20.0999C30.8885 20.0999 30.1055 19.3767 30.1055 18.231C30.1055 17.6776 30.3683 17.0682 30.7972 16.3753C31.0079 16.035 31.2471 15.6919 31.4956 15.3386C31.5141 15.3123 31.5327 15.2859 31.5513 15.2594C31.6356 15.1396 31.7208 15.0185 31.8055 14.8967C31.8901 15.0185 31.9753 15.1396 32.0596 15.2594C32.0783 15.2859 32.0968 15.3123 32.1153 15.3386C32.3638 15.6919 32.603 16.035 32.8137 16.3753C33.2426 17.0682 33.5055 17.6776 33.5055 18.231Z" stroke="#363636"/>
<path d="M26.6719 27.1999H31.8052V24.2666" stroke="#363636" stroke-linecap="round"/>
<path d="M26.1742 31.5999V31.9603L26.5161 32.0743L28.3742 32.6936V34.0333H26.6742H22.2742H20.5742V32.6936L22.4323 32.0743L22.7742 31.9603V31.5999V26.4666C22.7742 25.5277 23.5353 24.7666 24.4742 24.7666C25.413 24.7666 26.1742 25.5277 26.1742 26.4666V31.5999Z" stroke="#363636"/>
<path d="M34.374 22.5667H29.2406C28.9093 22.5667 28.6406 22.8353 28.6406 23.1666C28.6406 23.498 28.9093 23.7667 29.2406 23.7667H34.374C34.7053 23.7667 34.974 23.498 34.974 23.1666C34.974 22.8353 34.7053 22.5667 34.374 22.5667Z" stroke="#363636"/>
<path d="M22.27 27.1999H17.1367V24.2666" stroke="#363636" stroke-linecap="round"/>
<path d="M14.5714 22.5667H19.7047C20.0361 22.5667 20.3047 22.8353 20.3047 23.1667C20.3047 23.498 20.0361 23.7667 19.7047 23.7667H14.5714C14.24 23.7667 13.9714 23.498 13.9714 23.1667C13.9714 22.8353 14.24 22.5667 14.5714 22.5667Z" stroke="#363636"/>
</g>
</g>
<defs>
<clipPath id="clip0_341_9431">
<rect width="23" height="22" fill="white" transform="translate(12.5 13)"/>
</clipPath>
<clipPath id="clip1_341_9431">
<rect width="23" height="22" fill="white" transform="translate(12.5 13)"/>
</clipPath>
</defs>
</svg>
