<svg width="48" height="48" viewBox="0 0 48 48" fill="none" xmlns="http://www.w3.org/2000/svg">
<rect width="48" height="48" rx="24" fill="#C9A55A"/>
<g clip-path="url(#clip0_341_9446)">
<path d="M18.3073 29C18.3073 29.7665 17.692 30.3878 16.9329 30.3878C16.1739 30.3878 15.5586 29.7665 15.5586 29C15.5586 28.2336 16.1739 27.6123 16.9329 27.6123C17.692 27.6123 18.3073 28.2336 18.3073 29Z" stroke="#363636" stroke-linecap="round"/>
<path d="M27.8309 24.4284C29.1592 24.4284 30.236 23.3411 30.236 21.9998C30.236 20.6586 29.1592 19.5713 27.8309 19.5713C26.5026 19.5713 25.4258 20.6586 25.4258 21.9998C25.4258 23.3411 26.5026 24.4284 27.8309 24.4284Z" stroke="#363636" stroke-linecap="round"/>
<path fill-rule="evenodd" clip-rule="evenodd" d="M16.3681 25.0001C16.1895 25.0001 16.0447 25.1463 16.0447 25.3266V25.9448C15.8269 26.0093 15.6188 26.097 15.4234 26.2049L14.9439 25.7208C14.8176 25.5932 14.6128 25.5932 14.4866 25.7208L13.6862 26.5289C13.56 26.6564 13.56 26.8631 13.6862 26.9907L14.1658 27.4749C14.0589 27.6722 13.9721 27.8822 13.9082 28.1021H13.296C13.1174 28.1021 12.9727 28.2483 12.9727 28.4286V29.5715C12.9727 29.7518 13.1174 29.898 13.296 29.898H13.9082C13.9671 30.1005 14.0453 30.2945 14.1407 30.4781L13.6862 30.937C13.56 31.0645 13.56 31.2713 13.6862 31.3988L14.4866 32.2069C14.6128 32.3344 14.8176 32.3344 14.9439 32.2069L15.3773 31.7692C15.5861 31.8891 15.8097 31.9857 16.0447 32.0553V32.6735C16.0447 32.8538 16.1895 33 16.3681 33H17.4999C17.6785 33 17.8232 32.8538 17.8232 32.6735V32.0553C18.0797 31.9793 18.3225 31.8713 18.5473 31.7359L19.0138 32.2069C19.1401 32.3344 19.3448 32.3344 19.4711 32.2069L20.2714 31.3988C20.3977 31.2713 20.3977 31.0645 20.2714 30.937L19.7576 30.4182C19.8394 30.2525 19.9072 30.0786 19.9597 29.898H20.5719C20.7505 29.898 20.8953 29.7518 20.8953 29.5715V28.4286C20.8953 28.2483 20.7505 28.1021 20.5719 28.1021H19.9597C19.9022 27.904 19.826 27.7139 19.7334 27.5339L20.2714 26.9907C20.3977 26.8631 20.3977 26.6564 20.2714 26.5289L19.4711 25.7208C19.3448 25.5932 19.1401 25.5932 19.0138 25.7208L18.5021 26.2375C18.2901 26.1145 18.0626 26.0157 17.8232 25.9448V25.3266C17.8232 25.1463 17.6785 25.0001 17.4999 25.0001H16.3681ZM26.2736 15.5714C26.2736 15.2558 26.5269 15 26.8395 15H28.8202C29.1327 15 29.3861 15.2558 29.3861 15.5714V16.6532C29.8048 16.7773 30.203 16.9502 30.574 17.1654L31.4695 16.2612C31.6905 16.038 32.0488 16.038 32.2698 16.2612L33.6703 17.6754C33.8913 17.8986 33.8913 18.2604 33.6703 18.4835L32.7288 19.4342C32.8909 19.7492 33.0241 20.0819 33.1249 20.4285H34.1962C34.5088 20.4285 34.7621 20.6843 34.7621 20.9999V22.9999C34.7621 23.3155 34.5088 23.5713 34.1962 23.5713H33.1249C33.033 23.8873 32.9142 24.1917 32.7711 24.4816L33.6703 25.3896C33.8913 25.6128 33.8913 25.9746 33.6703 26.1977L32.2698 27.6119C32.0488 27.8351 31.6905 27.8351 31.4695 27.6119L30.6532 26.7877C30.2598 27.0247 29.8348 27.2137 29.3861 27.3466V28.4284C29.3861 28.744 29.1327 28.9999 28.8202 28.9999H26.8395C26.5269 28.9999 26.2736 28.744 26.2736 28.4284V27.3466C25.8623 27.2248 25.471 27.0558 25.1056 26.846L24.3471 27.6119C24.1261 27.8351 23.7678 27.8351 23.5468 27.6119L22.1463 26.1977C21.9253 25.9746 21.9253 25.6128 22.1463 25.3896L22.9417 24.5865C22.7746 24.2653 22.6377 23.9256 22.5348 23.5713H21.4634C21.1509 23.5713 20.8975 23.3155 20.8975 22.9999V20.9999C20.8975 20.6843 21.1509 20.4285 21.4634 20.4285H22.5348C22.6466 20.0437 22.7984 19.6762 22.9855 19.3309L22.1463 18.4835C21.9253 18.2604 21.9253 17.8986 22.1463 17.6754L23.5468 16.2612C23.7678 16.038 24.1261 16.038 24.3471 16.2612L25.1862 17.1085C25.5283 16.9196 25.8924 16.7662 26.2736 16.6532V15.5714Z" stroke="#363636" stroke-linecap="round"/>
</g>
<defs>
<clipPath id="clip0_341_9446">
<rect width="24" height="20" fill="white" transform="translate(12 14)"/>
</clipPath>
</defs>
</svg>
