<svg width="48" height="48" viewBox="0 0 48 48" fill="none" xmlns="http://www.w3.org/2000/svg">
<rect width="48" height="48" rx="24" fill="#C9A55A"/>
<g clip-path="url(#clip0_341_9331)">
<g clip-path="url(#clip1_341_9331)">
<path d="M14.4023 23.5603V24.3712C14.4023 26.4475 16.0855 28.1307 18.1619 28.1307C19.156 28.1307 20.1098 28.5245 20.8143 29.226L21.0858 29.4963C21.9694 30.376 22.4661 31.5714 22.4661 32.8182V34.1199M33.6018 23.5603V24.3712C33.6018 26.4476 31.9186 28.1307 29.8423 28.1307C28.8481 28.1307 27.8944 28.5245 27.1899 29.226L26.9183 29.4963C26.0348 30.376 25.538 31.5714 25.538 32.8182V34.1199" stroke="#363636"/>
<path d="M34.9993 20.9121C34.7361 19.3374 33.5018 18.1037 31.9269 17.8412L30.3504 17.5784C29.6539 17.4623 29.0111 17.1315 28.5118 16.6322C27.8765 15.9968 27.5195 15.1351 27.5195 14.2366V13" stroke="#363636"/>
<path d="M34.9993 26.1997C34.7361 27.7745 33.5018 29.0082 31.9269 29.2707L30.3504 29.5334C29.6539 29.6495 29.0111 29.9804 28.5118 30.4797C27.8765 31.115 27.5195 31.9767 27.5195 32.8752V34.1118" stroke="#363636"/>
<path d="M13 20.9121C13.2632 19.3374 14.4975 18.1037 16.0724 17.8412L17.6489 17.5784C18.3454 17.4623 18.9882 17.1315 19.4875 16.6322C20.1228 15.9968 20.4797 15.1351 20.4797 14.2366V13" stroke="#363636"/>
<path d="M13 26.1997C13.2632 27.7745 14.4975 29.0082 16.0724 29.2707L17.6489 29.5334C18.3454 29.6495 18.9882 29.9804 19.4875 30.4797C20.1228 31.115 20.4797 31.9767 20.4797 32.8752V34.1118" stroke="#363636"/>
<path d="M14.4023 23.5601V22.7492C14.4023 20.6728 16.0855 18.9897 18.1619 18.9897C19.156 18.9897 20.1098 18.5959 20.8143 17.8944L21.0858 17.6241C21.9694 16.7444 22.4661 15.549 22.4661 14.3022V13.0005M33.6018 23.5601V22.7492C33.6018 20.6728 31.9186 18.9897 29.8423 18.9897C28.8481 18.9897 27.8944 18.5959 27.1899 17.8944L26.9183 17.6241C26.0348 16.7444 25.538 15.549 25.538 14.3022V13.0005" stroke="#363636"/>
<path d="M16.2074 25.9142C15.7196 24.8165 16.5231 23.5801 17.7243 23.5801H30.2765C31.4777 23.5801 32.2812 24.8165 31.7934 25.9142C31.527 26.5136 30.9325 26.8999 30.2765 26.8999H17.7243C17.0683 26.8999 16.4739 26.5136 16.2074 25.9142Z" stroke="#363636"/>
<mask id="mask0_341_9331" style="mask-type:luminance" maskUnits="userSpaceOnUse" x="19" y="20" width="3" height="3">
<path d="M20.1592 22.6002C20.6894 22.6002 21.1192 22.1704 21.1192 21.6402C21.1192 21.11 20.6894 20.6802 20.1592 20.6802C19.629 20.6802 19.1992 21.11 19.1992 21.6402C19.1992 22.1704 19.629 22.6002 20.1592 22.6002Z" fill="white"/>
</mask>
<g mask="url(#mask0_341_9331)">
<path d="M20.1192 21.6402C20.1192 21.6181 20.1371 21.6002 20.1592 21.6002V23.6002C21.2417 23.6002 22.1192 22.7227 22.1192 21.6402H20.1192ZM20.1592 21.6002C20.1813 21.6002 20.1992 21.6181 20.1992 21.6402H18.1992C18.1992 22.7227 19.0767 23.6002 20.1592 23.6002V21.6002ZM20.1992 21.6402C20.1992 21.6623 20.1813 21.6802 20.1592 21.6802V19.6802C19.0767 19.6802 18.1992 20.5577 18.1992 21.6402H20.1992ZM20.1592 21.6802C20.1371 21.6802 20.1192 21.6623 20.1192 21.6402H22.1192C22.1192 20.5577 21.2417 19.6802 20.1592 19.6802V21.6802Z" fill="#363636"/>
</g>
<mask id="mask1_341_9331" style="mask-type:luminance" maskUnits="userSpaceOnUse" x="26" y="21" width="3" height="3">
<path d="M27.8428 23.5601C28.373 23.5601 28.8028 23.1303 28.8028 22.6001C28.8028 22.0699 28.373 21.6401 27.8428 21.6401C27.3126 21.6401 26.8828 22.0699 26.8828 22.6001C26.8828 23.1303 27.3126 23.5601 27.8428 23.5601Z" fill="white"/>
</mask>
<g mask="url(#mask1_341_9331)">
<path d="M27.8028 22.6001C27.8028 22.578 27.8207 22.5601 27.8428 22.5601V24.5601C28.9252 24.5601 29.8028 23.6826 29.8028 22.6001H27.8028ZM27.8428 22.5601C27.8648 22.5601 27.8828 22.578 27.8828 22.6001H25.8828C25.8828 23.6826 26.7603 24.5601 27.8428 24.5601V22.5601ZM27.8828 22.6001C27.8828 22.6222 27.8648 22.6401 27.8428 22.6401V20.6401C26.7603 20.6401 25.8828 21.5176 25.8828 22.6001H27.8828ZM27.8428 22.6401C27.8207 22.6401 27.8028 22.6222 27.8028 22.6001H29.8028C29.8028 21.5176 28.9252 20.6401 27.8428 20.6401V22.6401Z" fill="#363636"/>
</g>
<mask id="mask2_341_9331" style="mask-type:luminance" maskUnits="userSpaceOnUse" x="21" y="25" width="3" height="3">
<path d="M22.5577 27.4C23.0879 27.4 23.5177 26.9702 23.5177 26.44C23.5177 25.9098 23.0879 25.48 22.5577 25.48C22.0275 25.48 21.5977 25.9098 21.5977 26.44C21.5977 26.9702 22.0275 27.4 22.5577 27.4Z" fill="white"/>
</mask>
<g mask="url(#mask2_341_9331)">
<path d="M22.5176 26.44C22.5176 26.4179 22.5355 26.4 22.5576 26.4V28.4C23.6401 28.4 24.5176 27.5225 24.5176 26.44H22.5176ZM22.5576 26.4C22.5797 26.4 22.5976 26.4179 22.5976 26.44H20.5977C20.5977 27.5225 21.4752 28.4 22.5576 28.4V26.4ZM22.5976 26.44C22.5976 26.4621 22.5797 26.48 22.5576 26.48V24.48C21.4752 24.48 20.5977 25.3575 20.5977 26.44H22.5976ZM22.5576 26.48C22.5355 26.48 22.5176 26.4621 22.5176 26.44H24.5176C24.5176 25.3575 23.6401 24.48 22.5576 24.48V26.48Z" fill="#363636"/>
</g>
<mask id="mask3_341_9331" style="mask-type:luminance" maskUnits="userSpaceOnUse" x="21" y="19" width="3" height="2">
<path d="M22.3177 20.6802C22.7153 20.6802 23.0377 20.3579 23.0377 19.9602C23.0377 19.5626 22.7153 19.2402 22.3177 19.2402C21.92 19.2402 21.5977 19.5626 21.5977 19.9602C21.5977 20.3579 21.92 20.6802 22.3177 20.6802Z" fill="white"/>
</mask>
<g mask="url(#mask3_341_9331)">
<path d="M22.0376 19.9602C22.0376 19.8056 22.163 19.6802 22.3176 19.6802V21.6802C23.2675 21.6802 24.0376 20.9102 24.0376 19.9602H22.0376ZM22.3176 19.6802C22.4722 19.6802 22.5976 19.8056 22.5976 19.9602H20.5977C20.5977 20.9102 21.3677 21.6802 22.3176 21.6802V19.6802ZM22.5976 19.9602C22.5976 20.1149 22.4722 20.2402 22.3176 20.2402V18.2402C21.3677 18.2402 20.5977 19.0103 20.5977 19.9602H22.5976ZM22.3176 20.2402C22.163 20.2402 22.0376 20.1149 22.0376 19.9602H24.0376C24.0376 19.0103 23.2675 18.2402 22.3176 18.2402V20.2402Z" fill="#363636"/>
</g>
<mask id="mask4_341_9331" style="mask-type:luminance" maskUnits="userSpaceOnUse" x="19" y="24" width="2" height="2">
<path d="M19.9192 25.48C20.3169 25.48 20.6392 25.1577 20.6392 24.76C20.6392 24.3624 20.3169 24.04 19.9192 24.04C19.5216 24.04 19.1992 24.3624 19.1992 24.76C19.1992 25.1577 19.5216 25.48 19.9192 25.48Z" fill="white"/>
</mask>
<g mask="url(#mask4_341_9331)">
<path d="M19.6392 24.76C19.6392 24.6054 19.7646 24.48 19.9192 24.48V26.48C20.8691 26.48 21.6392 25.71 21.6392 24.76H19.6392ZM19.9192 24.48C20.0738 24.48 20.1992 24.6054 20.1992 24.76H18.1992C18.1992 25.71 18.9693 26.48 19.9192 26.48V24.48ZM20.1992 24.76C20.1992 24.9147 20.0738 25.04 19.9192 25.04V23.04C18.9693 23.04 18.1992 23.8101 18.1992 24.76H20.1992ZM19.9192 25.04C19.7646 25.04 19.6392 24.9147 19.6392 24.76H21.6392C21.6392 23.8101 20.8691 23.04 19.9192 23.04V25.04Z" fill="#363636"/>
</g>
<mask id="mask5_341_9331" style="mask-type:luminance" maskUnits="userSpaceOnUse" x="28" y="24" width="2" height="2">
<path d="M29.0403 25.96C29.438 25.96 29.7603 25.6377 29.7603 25.24C29.7603 24.8424 29.438 24.52 29.0403 24.52C28.6427 24.52 28.3203 24.8424 28.3203 25.24C28.3203 25.6377 28.6427 25.96 29.0403 25.96Z" fill="white"/>
</mask>
<g mask="url(#mask5_341_9331)">
<path d="M28.7603 25.24C28.7603 25.0854 28.8857 24.96 29.0403 24.96V26.96C29.9902 26.96 30.7603 26.19 30.7603 25.24H28.7603ZM29.0403 24.96C29.1949 24.96 29.3203 25.0854 29.3203 25.24H27.3203C27.3203 26.19 28.0904 26.96 29.0403 26.96V24.96ZM29.3203 25.24C29.3203 25.3947 29.1949 25.52 29.0403 25.52V23.52C28.0904 23.52 27.3203 24.2901 27.3203 25.24H29.3203ZM29.0403 25.52C28.8857 25.52 28.7603 25.3947 28.7603 25.24H30.7603C30.7603 24.2901 29.9902 23.52 29.0403 23.52V25.52Z" fill="#363636"/>
</g>
</g>
</g>
<defs>
<clipPath id="clip0_341_9331">
<rect width="24" height="22" fill="white" transform="translate(12 13)"/>
</clipPath>
<clipPath id="clip1_341_9331">
<rect width="24" height="22" fill="white" transform="translate(12 13)"/>
</clipPath>
</defs>
</svg>
