<svg width="48" height="48" viewBox="0 0 48 48" fill="none" xmlns="http://www.w3.org/2000/svg">
<rect width="48" height="48" rx="24" fill="#C9A55A"/>
<g clip-path="url(#clip0_341_9457)">
<g clip-path="url(#clip1_341_9457)">
<path d="M16.1681 25.0489H28.8814C29.2275 25.0489 29.5081 25.3295 29.5081 25.6756V27.1253C29.5081 27.6697 30.1544 27.9552 30.5569 27.5886L33.9875 24.4637C34.2605 24.2151 34.2605 23.7857 33.9875 23.5371L30.5569 20.4122C30.1544 20.0456 29.5081 20.3311 29.5081 20.8755V22.3252C29.5081 22.6713 29.2275 22.9519 28.8814 22.9519H16.168" stroke="#363636"/>
<path d="M12.5002 31.5052H19.1637C19.5099 31.5052 19.7905 31.7858 19.7905 32.1319V33.5816C19.7905 34.1259 20.4368 34.4115 20.8392 34.0449L24.2699 30.92C24.5428 30.6714 24.5428 30.2419 24.2699 29.9933L20.8392 26.8685C20.4368 26.5019 19.7905 26.7874 19.7905 27.3318V28.7815C19.7905 29.1276 19.5099 29.4082 19.1637 29.4082H12.5" stroke="#363636"/>
<path d="M12.5002 18.5916H19.1637C19.5099 18.5916 19.7905 18.8722 19.7905 19.2183V20.668C19.7905 21.2124 20.4368 21.4979 20.8392 21.1313L24.2699 18.0065C24.5428 17.7579 24.5428 17.3284 24.2699 17.0798L20.8392 13.9549C20.4368 13.5883 19.7905 13.8739 19.7905 14.4182V15.8679C19.7905 16.214 19.5099 16.4946 19.1637 16.4946H12.5" stroke="#363636"/>
</g>
</g>
<defs>
<clipPath id="clip0_341_9457">
<rect width="23" height="22" fill="white" transform="translate(12.5 13)"/>
</clipPath>
<clipPath id="clip1_341_9457">
<rect width="23" height="22" fill="white" transform="translate(12.5 13)"/>
</clipPath>
</defs>
</svg>
