<svg width="48" height="48" viewBox="0 0 48 48" fill="none" xmlns="http://www.w3.org/2000/svg">
<rect width="48" height="48" rx="24" fill="#C9A55A"/>
<g clip-path="url(#clip0_341_9389)">
<path d="M24.5189 33.8115C29.9378 33.8115 34.3308 29.4186 34.3308 23.9996C34.3308 18.5807 29.9378 14.1877 24.5189 14.1877C19.1 14.1877 14.707 18.5807 14.707 23.9996C14.707 29.4186 19.1 33.8115 24.5189 33.8115Z" stroke="#363636"/>
<path d="M24.519 32.4364C29.1786 32.4364 32.9559 28.659 32.9559 23.9995C32.9559 19.3399 29.1786 15.5625 24.519 15.5625C19.8594 15.5625 16.082 19.3399 16.082 23.9995C16.082 28.659 19.8594 32.4364 24.519 32.4364Z" stroke="#363636"/>
<path d="M24.5194 26.2494C25.7619 26.2494 26.7692 25.2421 26.7692 23.9996C26.7692 22.757 25.7619 21.7498 24.5194 21.7498C23.2768 21.7498 22.2695 22.757 22.2695 23.9996C22.2695 25.2421 23.2768 26.2494 24.5194 26.2494Z" stroke="#363636"/>
<path d="M24.5194 24.8743C25.0027 24.8743 25.3944 24.4826 25.3944 23.9994C25.3944 23.5162 25.0027 23.1245 24.5194 23.1245C24.0362 23.1245 23.6445 23.5162 23.6445 23.9994C23.6445 24.4826 24.0362 24.8743 24.5194 24.8743Z" stroke="#363636"/>
<path d="M23.3392 19.2718L23.8787 20.7554C24.038 21.1936 24.4145 21.517 24.8717 21.6084C25.4411 21.7223 26.0189 21.4551 26.3009 20.9475L27.4419 18.8937C27.4937 18.8005 27.5376 18.7031 27.5731 18.6025C28.1899 16.8548 26.2016 15.3443 24.6833 16.4071L24.1183 16.8026C23.3298 17.3545 23.0103 18.3672 23.3392 19.2718Z" stroke="#363636"/>
<path d="M25.2671 28.7266L24.7277 27.243C24.5683 26.8048 24.1919 26.4814 23.7346 26.39C23.1652 26.2761 22.5874 26.5433 22.3054 27.0509L21.1644 29.1047C21.1126 29.1979 21.0687 29.2954 21.0332 29.3959C20.4164 31.1436 22.4047 32.6541 23.9231 31.5913L24.488 31.1958C25.2765 30.6439 25.5961 29.6312 25.2671 28.7266Z" stroke="#363636"/>
<path d="M19.7454 24.9646L21.229 24.4251C21.6672 24.2657 21.9906 23.8893 22.0821 23.432C22.1959 22.8627 21.9288 22.2849 21.4212 22.0029L19.3674 20.8619C19.2741 20.8101 19.1767 20.7662 19.0761 20.7307C17.3284 20.1139 15.8179 22.1022 16.8807 23.6205L17.2762 24.1855C17.8282 24.974 18.8409 25.2935 19.7454 24.9646Z" stroke="#363636"/>
<path d="M29.2025 23.034L27.7189 23.5735C27.2807 23.7329 26.9573 24.1093 26.8659 24.5666C26.752 25.136 27.0191 25.7137 27.5268 25.9958L29.5806 27.1368C29.6738 27.1886 29.7712 27.2324 29.8718 27.2679C31.6195 27.8848 33.13 25.8965 32.0672 24.3781L31.6717 23.8132C31.1198 23.0247 30.1071 22.7051 29.2025 23.034Z" stroke="#363636"/>
</g>
<defs>
<clipPath id="clip0_341_9389">
<rect width="23" height="22" fill="white" transform="translate(12.5 13)"/>
</clipPath>
</defs>
</svg>
