<svg width="48" height="48" viewBox="0 0 48 48" fill="none" xmlns="http://www.w3.org/2000/svg">
<rect width="48" height="48" rx="24" fill="#C9A55A"/>
<g clip-path="url(#clip0_341_9405)">
<path d="M26.9729 22.2769C28.3887 24.7291 29.2808 27.1484 29.591 29.0651C29.7465 30.0253 29.7513 30.8323 29.622 31.4441C29.4926 32.0562 29.2434 32.4164 28.9362 32.5938C28.6289 32.7712 28.1924 32.8069 27.5976 32.6129C27.0031 32.419 26.3066 32.0113 25.5528 31.3966C24.0479 30.1696 22.3989 28.1874 20.983 25.7351C19.5672 23.2828 18.6751 20.8636 18.3649 18.9468C18.2095 17.9866 18.2046 17.1796 18.3339 16.5678C18.4633 15.9557 18.7125 15.5955 19.0197 15.4181C19.327 15.2407 19.7635 15.205 20.3583 15.399C20.9528 15.5929 21.6493 16.0006 22.4031 16.6153C23.908 17.8423 25.557 19.8245 26.9729 22.2769Z" stroke="#363636"/>
<path d="M26.9728 25.7351C25.557 28.1874 23.9079 30.1696 22.4031 31.3966C21.6493 32.0113 20.9528 32.419 20.3583 32.6129C19.7635 32.8069 19.327 32.7712 19.0197 32.5938C18.7125 32.4164 18.4633 32.0562 18.3339 31.4441C18.2046 30.8323 18.2095 30.0253 18.3649 29.0651C18.6751 27.1484 19.5672 24.7291 20.983 22.2769C22.3989 19.8246 24.0479 17.8423 25.5527 16.6153C26.3066 16.0006 27.003 15.5929 27.5975 15.399C28.1923 15.2051 28.6288 15.2407 28.9361 15.4181C29.2434 15.5955 29.4925 15.9557 29.6219 16.5678C29.7513 17.1796 29.7464 17.9866 29.591 18.9468C29.2808 20.8636 28.3886 23.2828 26.9728 25.7351Z" stroke="#363636"/>
<path d="M23.9788 27.4643C21.1472 27.4643 18.606 27.0273 16.791 26.3376C15.8817 25.9921 15.1804 25.5928 14.7152 25.1749C14.2499 24.7568 14.0625 24.3609 14.0625 24.0061C14.0625 23.6513 14.2499 23.2554 14.7152 22.8373C15.1804 22.4194 15.8817 22.0201 16.791 21.6746C18.606 20.9849 21.1472 20.5479 23.9788 20.5479C26.8105 20.5479 29.3517 20.9849 31.1667 21.6746C32.076 22.0201 32.7773 22.4194 33.2425 22.8373C33.7079 23.2554 33.8952 23.6513 33.8952 24.0061C33.8952 24.3609 33.7079 24.7568 33.2425 25.1749C32.7773 25.5928 32.076 25.9921 31.1667 26.3376C29.3517 27.0273 26.8105 27.4643 23.9788 27.4643Z" stroke="#363636"/>
<path d="M23.9804 24.7558C24.3946 24.7558 24.7304 24.42 24.7304 24.0058C24.7304 23.5916 24.3946 23.2559 23.9804 23.2559C23.5662 23.2559 23.2305 23.5916 23.2305 24.0058C23.2305 24.42 23.5662 24.7558 23.9804 24.7558Z" stroke="#363636"/>
</g>
<defs>
<clipPath id="clip0_341_9405">
<rect width="22" height="22" fill="white" transform="translate(13 13)"/>
</clipPath>
</defs>
</svg>
