<svg width="48" height="48" viewBox="0 0 48 48" fill="none" xmlns="http://www.w3.org/2000/svg">
<rect width="48" height="48" rx="24" fill="#C9A55A"/>
<g clip-path="url(#clip0_341_9380)">
<g clip-path="url(#clip1_341_9380)">
<path d="M28.4412 19.7132C29.0154 20.0908 28.7743 20.9823 28.0881 21.0191L27.7134 21.0392L27.7001 21.0399H27.6867H21.2586H21.2452L21.2319 21.0392L20.8572 21.0191C20.171 20.9823 19.9299 20.0908 20.5041 19.7132L21.0845 19.3316C22.0928 18.6684 22.6999 17.5425 22.6999 16.3357C22.6999 14.3554 21.0946 12.75 19.1142 12.75H19.0562C15.1518 12.75 12.7789 15.5227 11.4115 19.4683C11.088 20.4017 10.9727 21.406 10.9727 22.4318C10.9727 23.4576 11.088 24.462 11.4115 25.3954C12.7789 29.3409 15.1518 32.1136 19.0562 32.1136H19.1142C21.0946 32.1136 22.6999 30.5083 22.6999 28.528C22.6999 27.3211 22.0928 26.1952 21.0845 25.5321L20.6653 25.2564C20.0427 24.8469 20.3326 23.8783 21.0779 23.8783H22.5384C23.1764 23.8783 23.7005 24.3822 23.7256 25.0197L23.726 25.0301L23.7259 25.0407L23.7 34.7173C23.703 34.731 23.7245 34.8102 23.8359 34.8995C23.948 34.9893 24.1491 35.0833 24.4727 35.0833C24.7962 35.0833 24.9973 34.9893 25.1094 34.8995C25.2208 34.8102 25.2423 34.731 25.2453 34.7173L25.2194 25.0407L25.2193 25.0301L25.2198 25.0197C25.2448 24.3822 25.7689 23.8783 26.4069 23.8783H27.8674C28.6127 23.8783 28.9026 24.8469 28.28 25.2564L27.8608 25.5321C26.8525 26.1952 26.2454 27.3211 26.2454 28.528C26.2454 30.5083 27.8507 32.1136 29.8311 32.1136H29.8891C33.7935 32.1136 36.1664 29.3409 37.5338 25.3954C37.8573 24.462 37.9727 23.4576 37.9727 22.4318C37.9727 21.406 37.8573 20.4017 37.5338 19.4683C36.1664 15.5227 33.7935 12.75 29.8891 12.75H29.8311C27.8507 12.75 26.2454 14.3554 26.2454 16.3357C26.2454 17.5425 26.8525 18.6684 27.8608 19.3316L28.4412 19.7132ZM28.4412 19.7132L28.1665 20.131" stroke="#363636"/>
</g>
</g>
<defs>
<clipPath id="clip0_341_9380">
<rect width="29" height="24" fill="white" transform="translate(9.5 12)"/>
</clipPath>
<clipPath id="clip1_341_9380">
<rect width="29" height="24" fill="white" transform="translate(9.5 12)"/>
</clipPath>
</defs>
</svg>
